<svg xmlns="http://www.w3.org/2000/svg" version="1.2" viewBox="0 0 302 298" width="302" height="298">
	<title>Logo_GEO-svg-1-1</title>
	<style>
		.s0 { fill: #a61832 } 
	</style>
	<g>
		<path class="s0" d="m347.6 132.3q1.6-3.6 2.6-9.5 1-5.9 1-11.8v-9.4q0-4.9-1.8-7.7-1.9-2.8-5.4-2.8-3.7 0-5.5 2.8-1.8 2.8-1.9 7.7v9.4q0.1 5.8 1.1 11.7 1 5.9 2.6 9.6h-10.2q-1.7-3.5-2.8-9.5-1.1-6.1-1.1-12.2v-9.3q0-8.5 5-13.3 5.1-4.8 12.8-4.8 7.6 0 12.7 4.9 5.1 4.8 5.1 13.3v9.2q0 6.1-1.2 12.1-1.1 6.1-2.9 9.6z"/>
		<path class="s0" d="m408.5 132.3q-1-5.9-12.9-5.9h-21.6v-6.8h6.6v-0.3q-5.5-1.9-9.2-6.6-3.6-4.8-3.6-11.3-0.1-8.3 4-13.2 4-5 10.5-5 3.5 0 6.3 1.7 2.9 1.7 4.1 4.6h0.2q0.9-2.9 3.5-4.6 2.6-1.7 5.6-1.7 3.2 0 5.9 1.7 2.6 1.7 3.4 4.6h0.2q1.3-2.9 4.1-4.6 2.7-1.7 6.1-1.7 6.6 0 10.7 4.8 4.1 4.7 4.1 12.7 0 8.1-2.4 14.3h-10.3q2.3-6.1 2.3-14 0-10-5.2-10-2 0-3.4 1.7-1.3 1.7-1.3 4.5v12.1h-9.4v-12.2q0-2.9-1.3-4.5-1.2-1.6-3.4-1.6-2.1 0-3.4 1.7-1.3 1.7-1.3 4.4v12.2h-9.4v-12q0-3-1.2-4.7-1.2-1.6-3.3-1.6-2.6 0-4 2.6-1.4 2.7-1.4 7.6 0 7.7 4.9 12.2 4.8 4.5 11.2 5.1 10.2 1 12.8 1.6 6.4 1.3 9.5 4.2 3.2 3 3.4 8z"/>
		<path class="s0" d="m463.9 132.3q1.7-3.6 2.7-9.5 1-5.9 1-11.8v-9.4q0-4.9-1.9-7.7-1.8-2.8-5.4-2.8-3.6 0-5.5 2.8-1.8 2.8-1.8 7.7v9.4q0 5.8 1 11.7 1.1 5.9 2.6 9.6h-10.1q-1.8-3.5-2.9-9.5-1.1-6.1-1.1-12.2v-9.3q0-8.5 5.1-13.3 5-4.8 12.7-4.8 7.7 0 12.7 4.9 5.1 4.8 5.1 13.3v9.2q0 6.1-1.1 12.1-1.2 6.1-2.9 9.6z"/>
		<path class="s0" d="m501.5 133.5q-7.9 0-12.9-4.6-5-4.6-5-11.7 0-4 1.8-7.9h10.1q-1.4 4-1.4 7.3 0 3.9 2 6.4 2 2.5 5.5 2.5 3.6 0 5.6-2.5 2-2.5 2-6.4 0-2.4-0.6-4.4-0.5-2-1.8-3.9-1.2-1.9-2-2.9-0.9-1-2.7-3-2.2-2.4-3.5-4.3-1.3-1.8-2.4-5.5-1.1-3.6-1.1-8.3h10.4q0 4.3 1.5 7.3 1.4 3.1 4.2 6.4 1.7 2 2.4 2.9 0.7 0.9 2.2 3 1.4 2.2 2.1 3.8 0.6 1.7 1.2 4.2 0.5 2.5 0.5 5.3 0 7-5.1 11.6-5.2 4.7-13 4.7z"/>
		<path class="s0" d="m544 133.5q-8 0-12.9-4.3-4.9-4.3-4.9-11.7v-33.1h10.5v32.4q0 3.8 2 6.3 2 2.5 5.3 2.5 3.3 0 5.3-2.1 2-2.1 2-5.1 0-2.7-1-4.7-1-2.1-2.1-3.2-1.2-1.2-2.2-3.7-1-2.5-1-5.9h10.1q0.1 1.9 0.8 3.7 0.7 1.7 1.7 3 1 1.4 1.9 2.9 1 1.5 1.6 3.8 0.7 2.2 0.7 5.1 0 6.3-5.1 10.2-5.2 3.9-12.7 3.9z"/>
		<path class="s0" d="m604.7 133.5q-8 0-12.9-4.3-4.9-4.3-4.9-11.7v-33.1h10.5v32.4q0 3.8 2 6.3 2 2.5 5.3 2.5 3.3 0 5.3-2.1 2-2.1 2-5.1 0-2.7-1-4.7-1-2.1-2.1-3.2-1.1-1.2-2.2-3.7-1-2.5-1-5.9h10.1q0.2 1.9 0.9 3.7 0.7 1.7 1.6 3 1 1.4 2 2.9 0.9 1.5 1.5 3.8 0.7 2.2 0.7 5.1 0 6.3-5.1 10.2-5.1 3.9-12.7 3.9z"/>
		<path class="s0" d="m644.8 133.5q-7.8 0-12.8-4.6-5-4.6-5-11.7 0-4 1.8-7.9h10.1q-1.4 4-1.4 7.3 0 3.9 2 6.4 2 2.5 5.5 2.5 3.5 0 5.5-2.5 2-2.5 2-6.4 0-2.4-0.5-4.4-0.6-2-1.8-3.9-1.3-1.9-2.1-2.9-0.8-1-2.6-3-2.3-2.4-3.5-4.3-1.3-1.8-2.5-5.5-1.1-3.6-1.1-8.3h10.5q0 4.3 1.4 7.3 1.5 3.1 4.2 6.4 1.8 2 2.5 2.9 0.7 0.9 2.1 3 1.5 2.2 2.1 3.8 0.6 1.7 1.2 4.2 0.6 2.5 0.6 5.3 0 7-5.2 11.6-5.2 4.7-13 4.7z"/>
		<path fill-rule="evenodd" class="s0" d="m687.8 133.5q-8.2 0-13.2-4.8-5-4.8-5-12.2v-32.1h10.4v20.3h0.2q1.5-2.3 4.4-3.6 2.8-1.3 6.1-1.3 6.5 0 10.9 4.6 4.4 4.7 4.4 12.1 0 7.4-5 12.2-5.1 4.8-13.2 4.8zm0-8q3.4 0 5.6-2.4 2.1-2.4 2.1-6.4 0-4.1-2.1-6.5-2.1-2.4-5.6-2.4-3.6 0-5.9 2.4-2.2 2.4-2.2 6.5 0 4.1 2.2 6.4 2.3 2.4 5.9 2.4z"/>
		<path class="s0" d="m728.5 133.5q-7.9 0-12.7-4.1-4.8-4.1-4.8-10.6 0-3.8 1.2-6.8h10.1q-0.8 3.1-0.8 5.9 0 3.5 2 5.6 1.9 2 5.1 2 3.4 0 5.2-2.1 1.9-2.1 1.9-5.8v-18.8q0-3.4-1.6-5.5-1.7-2.2-4.8-2.2-3 0-4.7 2-1.8 1.9-1.8 4.7 0 1.9 0.4 3.4h-10.3q-0.5-1.5-0.5-3.9 0-5.9 4.7-10 4.7-4.1 12.1-4.1 7.8 0 12.4 4.3 4.6 4.4 4.6 10.8v19.8q0 6.9-4.9 11.1-4.9 4.3-12.8 4.3z"/>
		<path class="s0" d="m793.1 132.3q-1-5.9-12.9-5.9h-21.6v-6.8h6.6v-0.3q-5.4-1.9-9.1-6.6-3.7-4.8-3.7-11.3 0-8.3 4-13.2 4-5 10.5-5 3.5 0 6.4 1.7 2.9 1.7 4 4.6h0.3q0.8-2.9 3.5-4.6 2.6-1.7 5.5-1.7 3.3 0 5.9 1.7 2.6 1.7 3.4 4.6h0.3q1.3-2.9 4-4.6 2.8-1.7 6.1-1.7 6.6 0 10.7 4.8 4.2 4.7 4.2 12.7 0 8.1-2.5 14.3h-10.3q2.4-6.1 2.3-14 0-10-5.2-10-2 0-3.3 1.7-1.3 1.7-1.3 4.5v12.1h-9.5v-12.2q0-2.9-1.2-4.5-1.3-1.6-3.4-1.6-2.2 0-3.5 1.7-1.2 1.7-1.2 4.4v12.2h-9.5v-12q0-3-1.2-4.7-1.2-1.6-3.3-1.6-2.6 0-3.9 2.6-1.4 2.7-1.4 7.6 0 7.7 4.8 12.2 4.8 4.5 11.2 5.1 10.2 1 12.9 1.6 6.3 1.3 9.5 4.2 3.1 3 3.4 8z"/>
		<path fill-rule="evenodd" class="s0" d="m844.3 133.5q-8.2 0-13.2-4.8-5-4.8-5-12.2 0-7.4 4.2-11.9 4.2-4.5 10.7-4.5 3.4 0 6.4 1.3 3 1.2 4.5 3.5h0.2v-6q0-4-2.1-5.9-2-1.8-5.4-1.9-2.6 0.1-4.3 1.4-1.8 1.3-2.1 3.5h-10.6q0.1-4.7 4.8-8.8 4.7-4 12.1-4 8.3 0 13.2 4.1 4.8 4.1 4.8 11.3v18q0 7.3-5 12.1-5 4.8-13.2 4.8zm0-8q3.5 0 5.8-2.4 2.2-2.3 2.2-6.3 0-4-2.2-6.4-2.2-2.4-5.8-2.4-3.5 0-5.6 2.4-2.2 2.4-2.2 6.4 0 3.9 2.2 6.3 2.2 2.4 5.6 2.4z"/>
		<path fill-rule="evenodd" class="s0" d="m901.6 128.7q-5.1 4.8-13.3 4.8-8.2 0-13.2-4.8-5-4.7-5-12v-20.7q0-6.1 3.5-9.5 3.5-3.3 9.4-3.3 7.4 0 10.1 5.4h0.2q0.8-2.5 3-3.8 2.2-1.3 5.1-1.3h4.5v8.1h-3.4q-4.4 0-4.4 3.9v1.4h-9.1v-1.5q0-1.9-1.1-3.2-1.1-1.3-3.1-1.3-4.2 0-4.2 6.1v8.6h0.1q1.5-2.3 4.4-3.6 2.8-1.3 6.1-1.3 6.6 0 11 4.4 4.5 4.4 4.5 11.6 0 7.3-5.1 12zm-19-5.6q2.2 2.4 5.7 2.4 3.4 0 5.6-2.4 2.2-2.3 2.2-6 0-3.9-2.1-6.2-2.2-2.4-5.7-2.4-3.5 0-5.8 2.4-2.2 2.3-2.2 6.2 0 3.7 2.3 6z"/>
		<path class="s0" d="m934.1 132.3q1.6-3.6 2.6-9.5 1-5.9 1-11.8v-9.4q0-4.9-1.8-7.7-1.9-2.8-5.5-2.8-3.6 0-5.4 2.8-1.9 2.8-1.9 7.7v9.4q0 5.8 1.1 11.7 1 5.9 2.6 9.6h-10.2q-1.7-3.5-2.8-9.5-1.1-6.1-1.1-12.2v-9.3q0-8.5 5-13.3 5-4.8 12.8-4.8 7.6 0 12.7 4.9 5.1 4.8 5.1 13.3v9.2q0 6.1-1.2 12.1-1.1 6.1-2.9 9.6z"/>
		<path fill-rule="evenodd" class="s0" d="m999.3 129.7q-5.7 3.8-14.7 3.8-9 0-14.6-3.3-5.6-3.3-6-10.2h10.3q1.3 5.7 10.2 5.7 4 0 7.1-1.8 3.1-1.8 3.1-5.3 0-2.8-1.5-4.7-1.6-1.9-4.1-1.9h-1.3v-7.3h2.7q2.7 0 4.1-1.8 1.4-1.7 1.4-4.9 0-3.5-1.6-5.3-1.5-1.8-4.2-1.8-2.3 0-3.8 1.6-1.5 1.6-1.5 4.5v2.1q0 6.8-4.2 11.1-4.2 4.3-11.1 4.3-7.2 0-11.5-4.3-4.3-4.3-4.3-11.1 0-7 4.2-11.4 4.2-4.5 11.1-4.5 8.2 0 11.7 6.5h0.3q1.5-3.1 4.5-4.8 3-1.7 6.9-1.7 5.7 0 9.7 3.8 4 3.8 4 9.7 0 9-7.4 11.7v0.3q2.9 1.2 4.5 4.1 1.7 2.9 1.7 6.9 0 6.2-5.7 10zm-29.8-22.6q3.1 0 4.8-2.3 1.8-2.2 1.8-5.9 0-3.7-1.8-6-1.7-2.2-4.8-2.2-3 0-4.8 2.2-1.8 2.3-1.7 6 0 3.7 1.7 5.9 1.7 2.3 4.8 2.3z"/>
		<path class="s0" d="m1048.2 132.3q2.2-3.8 3.6-9.9 1.5-6.1 1.5-11.8v-10q0-9.4-5.7-9.5-2.2 0.1-3.6 2-1.4 1.9-1.4 5.4v20.2h-9.4v-20.2q0-3.5-1.4-5.4-1.3-2-3.7-2-2.5 0.1-4 2.5-1.5 2.4-1.5 7v10q0 5.6 1.4 11.8 1.3 6.2 3.5 9.9h-10.4q-2-3.4-3.5-9.5-1.4-6-1.4-12.4v-9.9q0-7.8 4.1-12.5 4.2-4.8 10.5-4.8 3.8 0 6.7 1.6 2.9 1.7 4.3 4.8h0.2q1.4-3.1 4.3-4.8 3-1.6 6.6-1.6 6.5 0 10.7 4.7 4.1 4.6 4.1 12.6v9.9q0 6.4-1.4 12.5-1.5 6.1-3.6 9.4z"/>
		<path class="s0" d="m344 211.9q-7.8 0-13-4.2-5.3-4.2-5.3-10.8 0-2.9 1.1-6.1h10.2q-0.8 2.6-0.8 5.3 0 3.4 2.1 5.6 2 2.3 5.7 2.3 3.5 0 5.6-2.2 2.2-2.2 2.2-6.2v-19.8q0-2.9-1.2-4.6-1.1-1.6-3.4-1.6-2.2 0-3.3 1.6-1.1 1.6-1.1 4.4v6.4h-9.8v-6.3q0-5.2-5.1-5.2h-3.1v-8.4h3.4q7.3 0 9.5 5.3h0.3q1.3-2.9 4.1-4.3 2.7-1.4 6.3-1.4 6.3 0 10.1 3.5 3.7 3.5 3.7 9.4v21.3q0 7.1-5.1 11.6-5.2 4.4-13.1 4.4z"/>
		<path fill-rule="evenodd" class="s0" d="m387.7 211.9q-8.2 0-13.2-4.8-5.1-4.7-5.1-12.1v-19q0-6.2 4.1-9.7 4.1-3.5 11.9-3.5h15.7v8h-15.1q-3.2 0-4.6 1.4-1.5 1.4-1.5 4.3v6.6h0.1q1.6-2.2 4.4-3.5 2.9-1.3 6.2-1.4 6.5 0 10.9 4.7 4.4 4.6 4.4 12 0 7.4-5 12.2-5.1 4.8-13.2 4.8zm-0.1-7.9q3.4 0 5.6-2.4 2.2-2.4 2.2-6.4 0-4.1-2.1-6.6-2.2-2.4-5.7-2.4-3.5 0-5.8 2.4-2.2 2.5-2.2 6.6 0 4 2.2 6.4 2.3 2.4 5.8 2.4z"/>
		<path class="s0" d="m433.4 210.8q1.6-3.7 2.6-9.6 1-5.9 1-11.7v-9.5q0-4.8-1.8-7.6-1.9-2.8-5.4-2.8-3.7 0-5.5 2.8-1.9 2.8-1.9 7.6v9.5q0 5.7 1.1 11.7 1 5.9 2.6 9.6h-10.2q-1.7-3.5-2.8-9.6-1.1-6-1.1-12.1v-9.4q0-8.4 5-13.2 5-4.8 12.8-4.8 7.6-0.1 12.7 4.8 5.1 4.8 5.1 13.3v9.3q0 6.1-1.2 12.1-1.1 6-2.9 9.6z"/>
		<path class="s0" d="m471.2 211.9q-7.9 0-12.9-4-4.9-3.9-4.9-10.2 0-3.3 1.1-5.8h9.9q-0.7 1.9-0.7 4.3 0 3.6 2.1 5.7 2 2.1 5.5 2.1 3.2 0 5.3-2 2.2-2 2.2-5.4 0-3.2-1.8-5.4-1.8-2.1-5.1-2.1h-2.5v-7.4h2.4q2.9 0 4.4-1.7 1.5-1.7 1.5-4.3 0-2.6-1.7-4.3-1.7-1.8-4.6-1.8-3 0-4.6 1.8-1.7 1.8-1.7 4.5 0 1.7 0.3 2.5h-10.1q-0.4-1.4-0.4-3.6 0-5.4 4.6-9.3 4.7-3.8 12-3.8 6.9 0 11.7 3.7 4.6 3.8 4.7 9.4 0 3.8-1.8 6.6-1.8 2.8-4.6 3.8v0.3q3.3 1.2 5.6 4.4 2.2 3.2 2.2 7.8 0 6.3-5.2 10.2-5.2 4-12.9 4z"/>
		<path class="s0" d="m511.6 211.9q-7.9 0-12.7-4.1-4.8-4-4.8-10.6 0-3.8 1.2-6.7h10.1q-0.8 3.1-0.8 5.8 0 3.6 2 5.6 1.9 2.1 5.1 2.1 3.4 0 5.2-2.1 1.9-2.2 1.9-5.9v-18.8q0-3.3-1.6-5.5-1.7-2.1-4.8-2.1-3 0-4.7 1.9-1.8 2-1.8 4.7 0 1.9 0.4 3.4h-10.3q-0.5-1.4-0.5-3.8 0-6 4.7-10.1 4.7-4.1 12.1-4.1 7.8 0 12.4 4.4 4.6 4.3 4.6 10.8v19.7q0 6.9-4.9 11.2-4.9 4.2-12.8 4.2z"/>
		<path class="s0" d="m569.7 210.8q4.5-7.8 4.5-16.3 0-4.4-1.4-6.5-1.4-2.2-3.7-2.2-2 0-3.3 1.8-1.2 1.7-1.2 4.7v9.9h-9.1v-9.8q0-3.2-1.2-4.9-1.2-1.7-3.2-1.7-2.3 0-3.7 2-1.5 2-1.5 6.6 0 8.8 4.5 16.3h-10.1q-4.8-7.4-4.8-20.3 0-4.9 1.1-8.8 1.1-3.9 2.9-6.5 1.8-2.7 4.5-4.6 2.6-1.9 5.4-2.9 2.8-1.1 6.2-1.7l5.6-1q3-0.6 3.6-2.1h10.4q-0.4 3.9-2.9 6.3-2.4 2.4-7.9 3.2l-5.8 0.9q-13.7 2.1-15.3 9.3h0.2q1.4-2.2 3.7-3.2 2.4-1.1 4.5-1.1 2.6 0 4.9 1.5 2.3 1.5 3.5 4.2h0.2q3-5.7 10.4-5.7 5.9 0 9.9 4.2 4 4.2 4 11.4 0 9.8-4.8 17z"/>
		<path class="s0" d="m608.9 211.9q-8 0-12.9-4.3-4.8-4.2-4.8-11.6v-33.2h10.5v32.4q0 3.9 1.9 6.4 2 2.4 5.4 2.4 3.3 0 5.2-2 2-2.1 2-5.2 0-2.6-0.9-4.7-1-2-2.2-3.2-1.1-1.2-2.1-3.7-1-2.4-1-5.9h10q0.2 2 0.9 3.7 0.7 1.7 1.7 3.1 0.9 1.4 1.9 2.9 0.9 1.5 1.6 3.7 0.6 2.3 0.6 5.1 0 6.4-5.1 10.2-5.1 3.9-12.7 3.9z"/>
		<path class="s0" d="m654.2 210.8q1.6-3.7 2.6-9.6 1-5.9 1-11.7v-9.5q0-4.8-1.8-7.6-1.9-2.8-5.5-2.8-3.6 0-5.4 2.8-1.9 2.8-1.9 7.6v9.5q0 5.7 1.1 11.7 1 5.9 2.6 9.6h-10.2q-1.7-3.5-2.8-9.6-1.1-6-1.1-12.1v-9.4q0-8.4 5-13.2 5-4.8 12.8-4.8 7.6-0.1 12.7 4.8 5.1 4.8 5.1 13.3v9.3q0 6.1-1.2 12.1-1.1 6-2.9 9.6z"/>
		<path fill-rule="evenodd" class="s0" d="m697.6 211.9q-10 0-16.6-6.5-6.7-6.5-6.7-17.8 0-9.8 5.3-16.2 5.4-6.3 13.5-7.9h0.6q-0.4-1.2-0.4-2.5h8.6q0 1.1-0.4 2.5h0.6q8.1 1.5 13.5 7.9 5.3 6.3 5.3 16.2 0 11.3-6.7 17.8-6.6 6.5-16.6 6.5zm-9.5-12.2q3.6 4.3 9.5 4.3 6 0 9.5-4.3 3.6-4.4 3.6-12.1 0-6.1-2.6-10.4-2.6-4.3-6.5-5.9l-0.3 0.1q1 4.6 1 9.8v8.8h-9.5v-8.9q0-5.4 1.1-9.7l-0.3-0.1q-9.1 3.1-9.1 16.3 0 7.7 3.6 12.1z"/>
		<path class="s0" d="m743.3 211.9q-7.9 0-12.7-4.1-4.8-4-4.8-10.6 0-3.8 1.2-6.7h10.1q-0.8 3.1-0.8 5.8 0 3.6 2 5.6 1.9 2.1 5.1 2.1 3.3 0 5.2-2.1 1.8-2.2 1.9-5.9v-18.8q-0.1-3.3-1.7-5.5-1.6-2.1-4.7-2.1-3 0-4.7 1.9-1.8 2-1.8 4.7 0 1.9 0.4 3.4h-10.3q-0.6-1.4-0.6-3.8 0-6 4.8-10.1 4.7-4.1 12.1-4.1 7.8 0 12.4 4.4 4.6 4.3 4.6 10.8v19.7q0 6.9-4.9 11.2-4.9 4.2-12.8 4.2z"/>
		<path fill-rule="evenodd" class="s0" d="m790.5 211.9q-10 0-16.7-6.5-6.7-6.5-6.7-17.8 0-9.8 5.4-16.2 5.3-6.3 13.4-7.9h0.6q-0.4-1.2-0.4-2.5h8.6q0 1.1-0.3 2.5h0.6q8 1.5 13.4 7.9 5.4 6.3 5.4 16.2 0 11.3-6.7 17.8-6.7 6.5-16.6 6.5zm-9.6-12.2q3.6 4.3 9.6 4.3 6 0 9.5-4.3 3.5-4.4 3.5-12.1 0-6.1-2.6-10.4-2.6-4.3-6.5-5.9l-0.2 0.1q1 4.6 1 9.8v8.8h-9.6v-8.9q0-5.4 1.1-9.7l-0.3-0.1q-9.1 3.1-9.1 16.3 0 7.7 3.6 12.1z"/>
		<path class="s0" d="m841.3 210.8q1.6-3.7 2.6-9.6 1-5.9 1-11.7v-9.5q0-4.8-1.9-7.6-1.8-2.8-5.4-2.8-3.6 0-5.5 2.8-1.8 2.8-1.8 7.6v9.5q0 5.7 1 11.7 1.1 5.9 2.6 9.6h-10.1q-1.8-3.5-2.9-9.6-1.1-6-1.1-12.1v-9.4q0-8.4 5.1-13.2 5-4.8 12.7-4.8 7.7-0.1 12.8 4.8 5 4.8 5 13.3v9.3q0 6.1-1.1 12.1-1.1 6-2.9 9.6z"/>
	</g>
	<g>
		<g>
			<path fill-rule="evenodd" class="s0" d="m152.2 5.1c40.1 0 76.3 16.2 102.5 42.4 26.2 26.2 42.5 62.5 42.5 102.5 0 40.1-16.3 76.3-42.5 102.5-26.2 26.3-62.4 42.5-102.5 42.5h-0.8c-39.7-0.2-75.6-16.4-101.7-42.5-26.2-26.2-42.5-62.4-42.5-102.5 0-40 16.3-76.3 42.5-102.5 26.1-26 62-42.2 101.7-42.4zm0 2.8h-0.8c-38.9 0.3-74.1 16.1-99.7 41.7-25.7 25.7-41.6 61.2-41.6 100.4 0 39.3 15.9 74.8 41.6 100.5 25.6 25.6 60.8 41.4 99.7 41.6h0.8c39.2 0 74.8-15.9 100.5-41.6 25.7-25.7 41.6-61.2 41.6-100.5 0-39.2-15.9-74.7-41.6-100.5-25.7-25.7-61.3-41.6-100.5-41.6zm-0.9 7.2c37.3 0 71 15.1 95.4 39.5 24.4 24.4 39.5 58.2 39.5 95.4 0 37.3-15.1 71-39.5 95.4-24.4 24.4-58.1 39.5-95.4 39.5-37.2 0-71-15.1-95.4-39.5-24.4-24.4-39.5-58.1-39.5-95.4 0-37.2 15.1-70.9 39.5-95.4 24.4-24.4 58.2-39.5 95.4-39.5zm0 267.7c36.7 0 69.9-14.9 93.9-38.9 24-24 38.9-57.3 38.9-93.9 0-36.6-14.9-69.9-38.9-93.9-24-24-57.2-38.9-93.9-38.9-36.6 0-69.8 14.9-93.9 38.9-24 24.1-38.9 57.3-38.9 93.9 0 36.7 14.9 69.9 38.9 93.9 24.1 24 57.3 38.9 93.9 38.9zm65.9-67.4c16.9-16.9 27.3-40.2 27.3-65.9 0-25.8-10.4-49.1-27.3-65.9-16.9-16.9-40.1-27.3-65.9-27.3v-2.2c26.3 0 50.2 10.7 67.4 28 17.3 17.2 27.9 41 27.9 67.4 0 26.3-10.6 50.1-27.9 67.4-17.2 17.2-41.1 27.9-67.4 27.9v-2.1c25.8 0 49-10.5 65.9-27.3zm-133.3-133.3c-17.2 17.3-27.9 41.1-27.9 67.4 0 26.3 10.7 50.2 27.9 67.4 17.3 17.3 41.1 27.9 67.4 27.9v-2.1c-25.7 0-49-10.4-65.9-27.3-16.8-16.8-27.3-40.1-27.3-65.9 0-25.7 10.5-49 27.3-65.9 16.9-16.8 40.2-27.3 65.9-27.3v-2.1c-26.3 0-50.1 10.7-67.4 27.9z"/>
		</g>
		<g>
			<path fill-rule="evenodd" class="s0" d="m152.2 5.1c40.1 0 76.3 16.2 102.5 42.4 26.2 26.2 42.5 62.5 42.5 102.5 0 40.1-16.3 76.3-42.5 102.5-26.2 26.3-62.4 42.5-102.5 42.5h-0.8c-39.7-0.2-75.6-16.4-101.7-42.5-26.2-26.2-42.5-62.4-42.5-102.5 0-40 16.3-76.3 42.5-102.5 26.1-26 62-42.2 101.7-42.4zm0 2.8h-0.8c-38.9 0.3-74.1 16.1-99.7 41.7-25.7 25.7-41.6 61.2-41.6 100.4 0 39.3 15.9 74.8 41.6 100.5 25.6 25.6 60.8 41.4 99.7 41.6h0.8c39.2 0 74.8-15.9 100.5-41.6 25.7-25.7 41.6-61.2 41.6-100.5 0-39.2-15.9-74.7-41.6-100.5-25.7-25.7-61.3-41.6-100.5-41.6zm-0.9 7.2c37.3 0 71 15.1 95.4 39.5 24.4 24.4 39.5 58.2 39.5 95.4 0 37.3-15.1 71-39.5 95.4-24.4 24.4-58.1 39.5-95.4 39.5-37.2 0-71-15.1-95.4-39.5-24.4-24.4-39.5-58.1-39.5-95.4 0-37.2 15.1-70.9 39.5-95.4 24.4-24.4 58.2-39.5 95.4-39.5zm0 267.7c36.7 0 69.9-14.9 93.9-38.9 24-24 38.9-57.3 38.9-93.9 0-36.6-14.9-69.9-38.9-93.9-24-24-57.2-38.9-93.9-38.9-36.6 0-69.8 14.9-93.9 38.9-24 24.1-38.9 57.3-38.9 93.9 0 36.7 14.9 69.9 38.9 93.9 24.1 24 57.3 38.9 93.9 38.9zm65.9-67.4c16.9-16.9 27.3-40.2 27.3-65.9 0-25.8-10.4-49.1-27.3-65.9-16.9-16.9-40.1-27.3-65.9-27.3v-2.2c26.3 0 50.2 10.7 67.4 28 17.3 17.2 27.9 41 27.9 67.4 0 26.3-10.6 50.1-27.9 67.4-17.2 17.2-41.1 27.9-67.4 27.9v-2.1c25.8 0 49-10.5 65.9-27.3zm-133.3-133.3c-17.2 17.3-27.9 41.1-27.9 67.4 0 26.3 10.7 50.2 27.9 67.4 17.3 17.3 41.1 27.9 67.4 27.9v-2.1c-25.7 0-49-10.4-65.9-27.3-16.8-16.8-27.3-40.1-27.3-65.9 0-25.7 10.5-49 27.3-65.9 16.9-16.8 40.2-27.3 65.9-27.3v-2.1c-26.3 0-50.1 10.7-67.4 27.9z"/>
		</g>
		<g>
			<path fill-rule="evenodd" class="s0" d="m154 262.4q-0.1 0.7-0.2 1.5 0.8-0.1 1.6-0.2 1-0.1 2-0.3l0.8-0.2-0.2 0.8q-0.2 0.9-0.2 1.8 0 0.9 0.2 1.8l0.1 0.8-0.7-0.2q-1-0.2-2.1-0.3-0.7-0.1-1.5-0.2 0.1 0.7 0.1 1.5 0.2 1 0.4 2l0.1 0.8-0.7-0.2q-0.9-0.1-1.8-0.1-0.9 0-1.8 0.1l-0.7 0.1 0.1-0.7q0.2-1 0.4-2.1 0-0.7 0.1-1.4-0.8 0-1.5 0.1-1.1 0.1-2.1 0.3l-0.8 0.2 0.2-0.8q0.1-0.9 0.1-1.7 0-0.9-0.1-1.8l-0.1-0.7 0.7 0.1q1.1 0.2 2.1 0.3 0.8 0.1 1.5 0.2 0-0.8-0.1-1.5-0.2-1.1-0.4-2.1l-0.2-0.8 0.8 0.2q0.9 0.2 1.8 0.2 0.9 0 1.9-0.2l0.8-0.1-0.2 0.8q-0.3 1-0.4 2zm64.9-193.9q-0.7-0.6-1.6-1.1l-0.6-0.4 0.5-0.4q0.9-0.7 1.6-1.4 0.6-0.5 1.1-1.1-0.6-0.4-1.3-0.8-0.9-0.5-1.8-1l-0.7-0.4 0.6-0.5q0.7-0.5 1.2-1.2 0.6-0.7 1.1-1.6l0.3-0.6 0.5 0.5q0.7 0.9 1.4 1.6 0.5 0.6 1.1 1.1 0.4-0.6 0.8-1.3 0.5-0.8 1-1.8l0.3-0.6 0.5 0.5q0.6 0.7 1.3 1.3 0.7 0.5 1.5 1l0.7 0.4-0.6 0.4q-0.8 0.7-1.5 1.4-0.6 0.5-1.1 1.1 0.7 0.4 1.3 0.8 0.9 0.6 1.9 1.1l0.6 0.3-0.5 0.5q-0.7 0.6-1.3 1.3-0.5 0.7-1 1.5l-0.3 0.6-0.5-0.5q-0.7-0.9-1.4-1.6-0.5-0.5-1.1-1.1-0.4 0.6-0.8 1.3-0.6 0.9-1 1.9l-0.4 0.7-0.5-0.6q-0.6-0.8-1.3-1.3zm-136.3-3q-0.8 0.7-1.5 1.5l-0.5 0.6-0.3-0.7q-0.4-0.8-0.9-1.6-0.6-0.7-1.3-1.4l-0.5-0.5 0.7-0.3q0.9-0.4 1.8-0.9 0.7-0.4 1.3-0.8-0.5-0.6-1-1.1-0.7-0.8-1.5-1.4l-0.5-0.5 0.7-0.4q0.8-0.4 1.5-0.9 0.7-0.6 1.4-1.2l0.5-0.5 0.3 0.6q0.4 1 0.9 1.9 0.4 0.6 0.8 1.2 0.6-0.5 1.1-1 0.8-0.7 1.5-1.5l0.5-0.5 0.4 0.6q0.4 0.8 0.9 1.5 0.5 0.8 1.2 1.4l0.5 0.5-0.7 0.3q-0.9 0.5-1.8 1-0.7 0.4-1.3 0.8 0.5 0.6 1 1.1 0.7 0.8 1.5 1.4l0.6 0.6-0.7 0.3q-0.8 0.4-1.6 0.9-0.7 0.6-1.4 1.3l-0.5 0.5-0.3-0.7q-0.4-0.9-1-1.8-0.3-0.7-0.7-1.3-0.6 0.5-1.1 1zm22.8 181.7q2.2-1.1 5 0.1c1.9 0.8 3.4 2.1 4 3.8 0.7 1.5 0.7 3.4-0.2 5.4q-0.1 0.4-0.4 0.9-0.3 0.4-0.7 0.9l-0.2 0.3-0.4-0.2-2-0.8-0.6-0.2 0.4-0.6q0.4-0.4 0.6-0.8 0.3-0.4 0.4-0.8 0.6-1.4 0.5-2.4-0.1-1.1-0.7-1.9h-0.1q-0.2-0.4-0.6-0.6-0.4-0.3-0.8-0.5c-1-0.4-1.9-0.4-2.6 0-0.8 0.4-1.4 1.2-2 2.5l-3.6 8.6q-0.4 1.2-0.3 1.8 0.2 0.6 0.9 0.9 0.7 0.3 1.2 0c0.3-0.1 0.6-0.5 0.8-0.9l1.4-3.4 0.2-0.5 0.5 0.2 2 0.9 0.5 0.2-0.2 0.4-1.6 3.8q-0.3 0.7-0.3 1.1 0 0.1 0.1 0.1 0 0 0.2 0 0.3-0.1 0.7-0.4c0.8-0.4 1.5-0.7 2.2-0.8q1.1-0.1 2.2 0.3c1 0.4 1.7 1.1 2 2 0.3 0.8 0.2 1.8-0.2 2.7v0.1q0 0.1-0.2 0.4-0.1 0.2-0.2 0.3l-0.2 0.4-0.4-0.2-2-0.8-0.6-0.2 0.4-0.5q0.1-0.2 0.2-0.4 0.1-0.1 0.1-0.3 0.3-0.5 0.2-0.8-0.1-0.2-0.4-0.3 0-0.1-0.4 0-0.6 0.2-1.4 0.6-1 0.4-1.7 0.5-0.8 0.2-1.4-0.1-0.9-0.3-1.3-1.1-0.2-0.4-0.2-0.9-0.7 0.3-1.4 0.3-1.1 0.1-2.3-0.4c-1-0.5-1.8-1.2-2.3-2.2-0.4-0.9-0.5-2.1 0.1-3.4l3.6-8.7q1.3-3.3 3.5-4.4zm-13.2-8c1.5-0.3 3.2 0 5 1.1 1.6 1 2.7 2.4 3.1 4 0.4 1.6 0.2 3.3-0.9 5v0.1l-4.6 7.4c-1 1.6-1.9 2.5-3.1 2.7-1.2 0.3-2.5-0.2-4.1-1.2-0.2-0.1-0.8-0.5-1.3-0.9-0.6-0.5-1.2-0.9-1.5-1.1q-0.6-0.4-1.4-0.6-0.7-0.3-1.6-0.4l-0.8-0.1 0.4-0.7 1.2-1.8 0.1-0.2h0.3q0.6-0.1 1.2 0.1 0.5 0.2 1.1 0.5c0.3 0.2 0.8 0.7 1.4 1.2 0.8 0.6 1.7 1.4 2.3 1.8q1 0.6 1.7 0.5 0.6-0.1 1.1-1l2.4-3.8q-0.7 0-1.4-0.1-1.2-0.2-2.5-1c-1.4-0.9-2.4-2.2-2.9-3.7-0.4-1.6-0.3-3.3 0.8-5 0.9-1.5 2.3-2.5 4-2.8zm2.5 10c0.8-0.2 1.6-0.7 2.1-1.6 0.6-0.9 0.8-1.9 0.6-2.8-0.1-0.9-0.7-1.7-1.6-2.3-0.9-0.5-1.8-0.6-2.7-0.4-0.9 0.2-1.6 0.7-2.2 1.6-0.5 0.8-0.7 1.8-0.5 2.8 0.2 0.8 0.7 1.6 1.6 2.2 0.9 0.5 1.8 0.7 2.7 0.5zm-8.5-16.1l1.6 1.4 0.3 0.3-0.1 0.3c-0.6 1.5-1.4 3.5-2.4 5.4-0.9 1.6-1.9 3.2-2.9 4.4-1.8 2-3.7 3.4-5.7 3.8-2 0.4-4 0-5.8-1.6-1.7-1.4-2.5-3.3-2.4-5.3 0.1-2 1.1-4.2 2.8-6.3h0.1c0.9-1.1 2.3-2.3 3.8-3.5 1.5-1.2 3.3-2.3 5-3.3l0.3-0.1 0.3 0.2 1.7 1.4 0.5 0.5-0.7 0.4c-1.6 0.8-3.2 1.7-4.7 2.9q-2.1 1.6-3.9 3.6c-1.3 1.6-2.1 3.1-2.2 4.4-0.2 1.3 0.2 2.3 1.1 3.1l0.1 0.1c0.9 0.7 2 1 3.2 0.6 1.3-0.4 2.7-1.3 4-3 1-1.1 2.1-2.7 3-4.4 0.9-1.6 1.6-3.4 2.1-5l0.3-0.8zm-27.2-3.1c0 0.7 0.2 1.4 0.8 2v0.1q1.1 1.2 2.4 1.2 1.3-0.1 2.9-1.5l0.4-0.4 0.4 0.5 1.4 1.6 0.4 0.4-0.4 0.3c-1.6 1.3-3.2 2-4.8 2-1.7 0-3.2-0.8-4.7-2.4v-0.1c-1.1-1.3-1.7-2.8-1.7-4.2 0.1-1.4 0.7-2.8 2-3.9q1.1-0.9 2.4-1.1 0.8-0.1 1.6 0.1-0.1-0.9 0.3-1.8 0.5-1.4 2-2.7 2.6-2.2 5-2.2 2.4 0.1 4.5 2.5c1.3 1.6 2 3.2 2 4.9-0.1 1.5-0.8 3.1-2.3 4.3q-0.6 0.6-1.2 0.9-0.6 0.4-1.2 0.6l-0.3 0.1-0.3-0.2-1.4-1.6-0.4-0.6 0.6-0.2q0.6-0.3 1.1-0.6 0.5-0.3 0.9-0.7c0.9-0.7 1.4-1.6 1.5-2.5 0.1-0.9-0.2-1.8-1-2.6q-1.1-1.3-2.3-1.3-1.3 0-2.9 1.4-1.4 1.2-1.6 2.3-0.2 1.1 0.7 2.1l0.3 0.4-0.4 0.3-1.2 1.1-0.4 0.3-0.3-0.4q-1-1-1.8-1.1-0.9-0.1-1.8 0.7c-0.7 0.6-1.1 1.3-1.2 2zm-7.9-10.6q1.1 0.2 2.5-0.7 0.3-0.1 0.5-0.3 0.2-0.2 0.3-0.2l0.5-0.4 0.3 0.5 1.1 1.8 0.3 0.4-0.4 0.3q-0.1 0.1-0.4 0.3-0.3 0.2-0.6 0.4c-1.4 0.9-3 1.2-4.5 0.8-1.3-0.4-2.7-1.4-3.7-3-1-1.6-1.4-3.1-1.2-4.6 0.2-1.4 1-2.6 2.4-3.5l7-4.5c1.8-1.2 3.6-1.7 5.2-1.6 1.7 0.2 3.1 1.2 4.3 3q1.6 2.7 1.2 5.4c-0.4 1.6-1.5 3.1-3.3 4.3q-0.4 0.3-0.9 0.5-0.5 0.2-1.1 0.4l-0.4 0.1-0.2-0.4-1.1-1.8-0.4-0.5 0.7-0.2q0.5-0.2 0.9-0.4 0.5-0.2 0.8-0.4c1.1-0.7 1.9-1.6 2.1-2.5 0.3-1 0.2-1.9-0.5-2.9-0.5-0.9-1.3-1.4-2.1-1.5q-1.4-0.3-3 0.9l-7.5 4.7q-1.2 0.8-1.3 1.8-0.2 1 0.6 2.2 0.9 1.4 1.9 1.6zm5.4-17q-1.2 1.1-2.6 1.6-3.2 1.4-6.1 0.7-2.9-0.6-5.7-3.2c0 0-0.5-0.6-1.8-2q-0.6-0.5-1-0.9-0.3-0.4-0.6-0.5-0.4-0.3-0.9-0.4-0.4-0.2-0.9-0.1h-0.3l-0.2-0.3-0.8-2-0.2-0.6 0.5-0.1q1.5-0.4 3.3 0.3c1 0.4 2.1 1.2 3.1 2.4l1.7 2.1c1 1.2 2 1.8 3 2.2q-0.2-0.4-0.4-0.8-0.5-1.2-0.4-2.4 0.1-0.9 0.6-1.8-1-0.4-1.7-0.9-1-0.8-1.5-2c-0.6-1.5-0.7-3-0.2-4.3 0.6-1.4 1.6-2.5 3.4-3.2q1.4-0.6 2.9-0.8 1.5-0.1 3 0.2l0.3 0.1 0.1 0.2 0.9 2.1 0.4 1-1-0.3q-1.4-0.4-2.7-0.3-1.3 0.1-2.5 0.6c-1 0.4-1.7 1-2.1 1.6-0.3 0.6-0.4 1.2-0.1 1.9 0.3 0.7 0.8 1.2 1.5 1.4 0.6 0.3 1.4 0.3 2.2-0.1l1.6-0.7 0.5-0.2 0.2 0.5 0.9 2 0.1 0.5-0.4 0.2-2 0.8c-0.7 0.3-1.2 0.7-1.5 1.3-0.2 0.5-0.2 1.2 0.1 1.8 0.2 0.6 0.7 1.1 1.3 1.3 0.6 0.2 1.4 0.1 2.2-0.2q1.4-0.6 2.5-1.6 1-1 1.7-2.3l0.5-1 0.5 1 0.9 2.2 0.1 0.3-0.2 0.2q-1 1.5-2.2 2.5zm-5.5-26.9c0.5 2.2 0.3 3.9-0.6 5.2q-1.4 1.9-4.5 2.7l-12.8 2.9-0.5 0.1-0.1-0.5-0.5-2.1-0.1-0.5 0.5-0.1 12.8-2.9q2.1-0.5 2.9-1.6 0.7-1 0.4-2.7h-0.1c-0.2-1-0.7-1.8-1.5-2.3-0.7-0.5-1.7-0.7-2.8-0.4-0.6 0.1-1 0.3-1.3 0.5q-0.5 0.3-1.2 1.2-0.4 0.6-0.9 1-0.5 0.4-1 0.6l-0.5 0.2-0.2-0.6-0.4-2.1-0.1-0.5 0.4-0.1q0.4-0.1 0.7-0.3 0.3-0.3 0.6-0.7c0.5-0.7 0.9-1.2 1.4-1.6 0.5-0.3 1.1-0.6 2-0.7 1.6-0.4 3.3-0.1 4.6 0.8 1.3 0.9 2.4 2.4 2.8 4.5zm-8.3-8.2c-1.8 0.5-3.6 0.9-5.2 1-2.7 0.2-5-0.3-6.7-1.4-1.7-1.1-2.7-2.8-2.9-5.1-0.2-2.3 0.6-4.2 2.1-5.5 1.5-1.4 3.7-2.2 6.5-2.4 1.5-0.1 3.3 0 5.2 0.2 1.9 0.3 3.9 0.7 5.8 1.3l0.4 0.1v0.4l0.2 2.1v0.8l-0.7-0.2c-1.7-0.6-3.6-1.1-5.4-1.4-1.8-0.2-3.6-0.3-5.3-0.2q-3.2 0.3-4.8 1.5c-1 0.8-1.5 1.8-1.4 3.1 0.1 1.2 0.7 2.2 1.8 2.8 1.2 0.6 2.8 0.9 5 0.8 1.5-0.1 3.4-0.5 5.2-1 1.8-0.6 3.6-1.3 5.1-2.1l0.7-0.3 0.1 0.8 0.1 2.1 0.1 0.3-0.3 0.2c-1.5 0.7-3.5 1.5-5.6 2.1zm-8.5-22.9c-0.6 0.5-1.4 0.7-2.3 0.6-1.2-0.1-2.3-0.7-2.9-1.7-0.6-0.9-0.9-2.1-0.8-3.6 0.1-1.3 0.6-2.4 1.4-3.2 0.8-0.7 1.9-1 3.2-0.9q1 0.1 1.7 0.6 0.2 0.2 0.4 0.4c0.3-1.4 1.1-2.6 2.1-3.4 1.3-1 3.1-1.5 5.2-1.3 2.3 0.2 4.1 1.3 5.3 3 1.2 1.8 1.8 4.2 1.5 7.3-0.3 2.8-1.3 5-2.8 6.6-1.5 1.5-3.5 2.3-5.7 2.1q-1.9-0.2-3.4-0.9-1.5-0.7-2.7-2l-0.1-0.2v-0.2l0.2-2.1 0.1-1.1 0.8 0.8q1 1.1 2.4 1.7 1.3 0.7 2.9 0.8c1.6 0.2 2.9-0.3 3.8-1.3 1.1-1 1.7-2.6 1.9-4.6 0.2-2-0.2-3.7-1.1-4.8-0.9-1.1-2.3-1.8-4.1-2-1-0.1-2 0.1-2.8 0.6q-0.4 0.3-0.8 0.7 0.9-0.3 1.8-0.2c1 0.1 2 0.7 2.6 1.6 0.6 0.9 0.9 2.2 0.8 3.6v0.1c-0.2 1.3-0.7 2.5-1.5 3.3-0.8 0.8-1.9 1.3-3.1 1.1-0.9 0-1.7-0.4-2.3-1q-0.5-0.5-0.8-1.2-0.4 0.5-0.9 0.8zm2.9-4.9q-0.5 0.4-0.6 1.2c-0.1 0.5 0.1 1 0.4 1.3 0.3 0.4 0.7 0.6 1.3 0.7 0.6 0 1-0.1 1.3-0.4 0.4-0.2 0.6-0.7 0.6-1.2 0.1-0.5 0-1-0.3-1.3q-0.3-0.5-1.1-0.6-1.1-0.1-1.6 0.3zm-5.9-0.6q-0.4 0.4-0.5 1.2-0.1 0.8 0.3 1.3c0.3 0.4 0.8 0.6 1.3 0.6h0.1q0.8 0.1 1.3-0.3c0.3-0.3 0.5-0.8 0.6-1.3 0.1-0.5-0.1-1-0.4-1.3-0.3-0.3-0.7-0.5-1.3-0.6q-0.9-0.1-1.4 0.4zm5.5-12.4q-0.3-0.1-0.7-0.2c-1.6-0.5-2.8-1.4-3.5-2.7-0.7-1.3-0.8-3-0.3-4.9 0.5-1.8 1.4-3.1 2.6-3.9 1.2-0.8 2.6-1.1 4.2-0.6l8.1 2.2c2.1 0.6 3.7 1.6 4.7 3 0.8 1.4 1.1 3 0.5 5-0.6 2.1-1.7 3.6-3.2 4.5-1.5 0.8-3.3 1-5.4 0.5q-0.5-0.2-1-0.4-0.4-0.2-1-0.6l-0.3-0.2 0.1-0.3 0.6-2.1 0.2-0.7 0.6 0.4q0.4 0.3 0.9 0.5 0.4 0.2 0.8 0.3c1.3 0.4 2.4 0.3 3.3-0.1 0.9-0.4 1.5-1.2 1.8-2.3 0.3-1 0.2-1.9-0.3-2.6q-0.7-1.1-2.7-1.7l-8.5-2.4c-0.9-0.2-1.6-0.1-2.2 0.2q-0.9 0.6-1.2 2-0.5 1.5 0.1 2.5 0.5 0.9 2.1 1.4 0.4 0.1 0.6 0.1 0.2 0 0.4 0.1l0.6 0.1-0.2 0.5-0.6 2.1-0.1 0.4h-0.4q-0.3-0.1-0.6-0.1zm7.2-21.3c-0.8 0.2-1.7 0.1-2.5-0.3-1.1-0.5-1.9-1.4-2.2-2.6-0.2-1-0.1-2.2 0.6-3.6 0.6-1.2 1.4-2.1 2.4-2.5 1-0.4 2.1-0.4 3.3 0.2q0.9 0.4 1.4 1.2 0.1 0.2 0.2 0.4c0.8-1.2 1.9-2 3.1-2.4 1.6-0.5 3.4-0.4 5.4 0.5 2.1 1 3.5 2.7 4 4.9 0.5 2 0.1 4.4-1.2 7.1-1.1 2.5-2.9 4.3-4.8 5.2-1.9 1-4 1.1-6 0.1q-1.8-0.8-2.9-2-1.2-1.2-1.9-2.8l-0.1-0.2 0.1-0.2 0.9-1.9 0.5-1 0.4 1q0.7 1.4 1.7 2.4 1 1.1 2.5 1.8 2.2 1.1 4.2 0c1.2-0.6 2.3-1.9 3.1-3.7 0.9-1.8 1.1-3.4 0.7-4.8-0.5-1.4-1.5-2.5-3.3-3.3-0.9-0.5-1.9-0.6-2.8-0.4q-0.5 0.1-0.9 0.4 0.9 0 1.7 0.5c1 0.4 1.7 1.3 1.9 2.5 0.2 1 0.1 2.2-0.5 3.5-0.6 1.2-1.5 2.2-2.5 2.7q-1.7 0.8-3.3 0-1.2-0.6-1.8-1.8-0.3-0.6-0.4-1.4-0.5 0.3-1 0.5zm4.3-3.7q-0.6 0.2-1 0.9c-0.2 0.5-0.2 1-0.1 1.4 0.2 0.4 0.6 0.8 1.1 1.1 0.5 0.2 1 0.2 1.4 0.1 0.4-0.1 0.7-0.5 0.9-1 0.3-0.4 0.3-0.9 0.2-1.3-0.1-0.3-0.4-0.7-0.9-0.9q-1-0.5-1.6-0.3zm-5.3-2.6q-0.6 0.2-1 1c-0.2 0.5-0.2 1-0.1 1.4 0.2 0.4 0.5 0.7 1.1 1q0.7 0.3 1.3 0.1c0.5-0.2 0.8-0.5 1.1-1 0.2-0.5 0.2-0.9 0-1.3-0.2-0.5-0.5-0.8-1-1.1q-0.8-0.3-1.4-0.1zm15.6-4.9c-1.7-0.7-3.4-1.6-4.6-2.5h-0.1c-2.1-1.6-3.6-3.4-4.2-5.3-0.6-2-0.3-4 1-5.9 1.4-1.9 3.2-2.8 5.2-2.9 2-0.1 4.2 0.7 6.4 2.3h0.1c1.2 0.8 2.5 2.1 3.8 3.5 1.3 1.4 2.6 3 3.7 4.7l0.2 0.3-0.2 0.3-1.3 1.7-0.4 0.7-0.4-0.7q-1.5-2.4-3.3-4.5c-1.2-1.3-2.5-2.5-4-3.5-1.7-1.2-3.2-1.8-4.6-1.9-1.2 0-2.3 0.5-3 1.5-0.7 1-0.9 2.1-0.4 3.3 0.4 1.2 1.5 2.5 3.3 3.7v0.1c1.2 0.8 2.9 1.7 4.7 2.5 1.6 0.7 3.5 1.4 5.2 1.7l0.7 0.2-0.4 0.6-1.3 1.8-0.2 0.2h-0.3c-1.6-0.4-3.6-1.1-5.6-1.9zm192.5 6.5c-0.3 0.5-0.8 0.9-1.5 1.3-1.5 0.9-3.2 1.1-4.7 0.7-1.6-0.5-3-1.6-4.1-3.4-1.2-1.9-1.5-3.7-1.1-5.2 0.5-1.5 1.7-2.8 3.5-3.9l11.2-6.8 0.4-0.2 0.3 0.4 1.1 1.8 0.3 0.5-0.5 0.2-11.2 6.8q-1.8 1.1-2.2 2.4-0.4 1.2 0.5 2.7c0.5 0.9 1.3 1.5 2.2 1.7 0.8 0.2 1.8 0.1 2.7-0.5 0.6-0.3 0.9-0.5 1.1-0.9 0.3-0.3 0.5-0.8 0.7-1.5q0.3-0.7 0.6-1.2 0.4-0.6 0.8-0.9l0.5-0.3 0.3 0.4 1.1 1.9 0.2 0.4-0.4 0.3q-0.3 0.2-0.6 0.5-0.2 0.3-0.3 0.8c-0.3 0.9-0.5 1.5-0.9 2zm-1.1 8.3c-0.4 0.8-0.4 1.8 0.1 2.8 0.5 1.2 1.2 1.9 2.2 2.1 1.1 0.2 2.5-0.1 4.1-0.8 1.3-0.5 2.1-1.1 2.6-1.9 0.5-0.7 0.7-1.7 0.9-3 0.2-1.7 0.5-2.9 1-3.8 0.6-1 1.4-1.6 2.6-2.1q0.2-0.1 0.5-0.2 0.3-0.1 0.6-0.2l0.5-0.1 0.2 0.4 0.8 2 0.2 0.5-0.5 0.2q-0.3 0.1-0.9 0.3h-0.1c-0.7 0.4-1.2 0.7-1.5 1.3-0.3 0.7-0.5 1.6-0.8 2.9-0.3 1.8-0.8 3.2-1.6 4.2-0.8 1.1-1.8 1.9-3.3 2.5-2.2 0.9-4.3 1.1-6 0.6-1.8-0.6-3.1-1.8-4-3.8-0.7-1.8-0.7-3.6-0.1-5.2 0.6-1.5 1.8-2.8 3.5-3.5q0.7-0.3 1.4-0.4 0.7-0.1 1.5-0.1h0.3l0.2 0.3 0.8 2 0.3 0.7h-0.8q-0.7 0-1.3 0.1-0.6 0.1-1.1 0.3c-1.1 0.4-1.9 1.1-2.3 1.9zm5.3 22.5c-1.3-0.8-2.3-2.2-2.8-4.1-0.5-1.9-0.3-3.7 0.6-5.2 0.9-1.3 2.3-2.4 4.4-2.9l12.6-3.2 0.5-0.2 0.1 0.5 0.5 2.1 0.2 0.5-0.5 0.1-8.2 2.1 5 3.6 0.2 0.3 0.6 2.5-0.8 0.5-3-2.2c0.1 1.3-0.2 2.5-0.8 3.6-0.7 1.3-2 2.4-3.9 2.8-1.6 0.4-3.3 0.1-4.7-0.8zm6.2-3.9c0.5-0.7 0.6-1.5 0.4-2.5-0.3-1-0.8-1.8-1.6-2.3-0.7-0.4-1.6-0.6-2.6-0.3-0.9 0.2-1.7 0.8-2.2 1.5-0.5 0.8-0.7 1.7-0.5 2.7 0.3 0.9 0.8 1.7 1.6 2.2 0.7 0.4 1.6 0.6 2.7 0.3 0.9-0.2 1.7-0.8 2.2-1.6zm7.4 7.3q0.3 0 0.7-0.1c1.7-0.2 3.2 0.3 4.3 1.3 1.1 1 1.8 2.5 2 4.4 0.2 1.7-0.1 3.3-0.9 4.5-0.8 1.2-2.1 2-3.8 2.2l-8.3 0.8c-2.2 0.2-4.1-0.1-5.5-1.1-1.3-0.9-2.1-2.4-2.3-4.5-0.2-2 0.2-3.8 1.2-5.2 1.1-1.3 2.8-2.3 5-2.5h0.1q0.4 0 0.9 0 0.6 0 1.2 0.1l0.3 0.1 0.1 0.4 0.2 2.1 0.1 0.7-0.7-0.1q-0.6-0.1-1-0.1-0.5-0.1-0.9 0c-1.3 0.1-2.4 0.6-3.1 1.3-0.6 0.7-0.9 1.6-0.8 2.8q0.1 1.6 1.2 2.3 1.1 0.8 3.1 0.6l8.8-0.9q1.4-0.1 2-0.9 0.6-0.9 0.5-2.3-0.2-1.6-1-2.3-0.9-0.7-2.5-0.5h-0.1q-0.3 0-0.5 0-0.3 0.1-0.4 0.1l-0.6 0.1-0.1-0.5-0.2-2.2v-0.4l0.4-0.1q0.3-0.1 0.6-0.1zm-2.8 17.3c1.3-0.5 2.7-0.7 4.3-0.6 2.1 0.2 3.6 0.8 4.7 1.8q1.6 1.5 1.5 3.9-0.1 1.1-0.7 1.9-0.3 0.5-0.9 1 0.5 0.6 0.7 1.2 0.4 1 0.3 2.1-0.1 1.1-0.6 2-0.4 0.7-1 1.2 0.5 0.6 0.8 1.4 0.3 1.1 0.2 2.4c-0.1 1.3-0.7 2.4-1.7 3.2-1 0.7-2.3 1.1-4 1-0.6-0.1-1.4-0.3-2.2-0.6-0.8-0.3-1.6-0.7-2.3-1.2l-0.3-0.1v-0.3l0.2-2.2 0.1-0.9 0.7 0.5q1.1 0.7 2.1 1.1 1 0.4 2 0.5h0.1q1.2 0.1 2-0.4 0.6-0.4 0.7-1.4 0.1-0.9-0.4-1.5c-0.4-0.4-0.9-0.6-1.6-0.7l-3.2-0.3h-0.5v-0.5l0.2-1.6v-0.5h0.5l3.2 0.3q1.2 0.1 1.8-0.3 0.5-0.4 0.6-1.4 0.1-0.9-0.4-1.4-0.5-0.6-1.6-0.7l-3.2-0.3h-0.6l0.1-0.5 0.1-1.6 0.1-0.5h0.5l3.2 0.3q1.2 0.1 1.8-0.3 0.5-0.3 0.6-1.1 0.1-1-0.7-1.5c-0.6-0.4-1.6-0.7-3-0.8-2.2-0.2-3.8 0.2-4.9 1.2-1.1 0.9-1.8 2.4-2.1 4.3-0.7 3.5-1.3 6.1-2.4 7.9-1.2 1.8-2.8 2.7-5.4 2.7l-0.5-0.1v-0.5l0.2-2.2v-0.4h0.5c1.7 0 2.9-0.8 3.7-2.7 0.9-2 1.4-5.3 1.9-10.2q0-0.8 0.1-1.4 0-0.7 0-1.4v-0.5h0.6l1.6 0.1 0.5 0.1-0.1 0.5-0.1 1.5q1-1 2.2-1.5zm-0.4 29l0.6-2.1 0.1-0.5 0.5 0.2c2 0.6 3.5 1.6 4.3 3.1 0.9 1.4 1 3.2 0.5 5.2l-0.1 0.1c-0.4 1.5-1.3 2.8-2.6 3.6-1.3 0.8-2.9 1-4.8 0.5l-7.5-2.1h-0.1q-3.3-1-4.5-3.1-1.3-2.1-0.4-5.3c0.5-1.9 1.6-3.3 2.9-4.2 1.4-0.8 3.1-1.1 4.9-0.6 1.7 0.5 3 1.5 3.8 3 0.7 1.4 0.9 3.2 0.4 5.1q-0.4 1.3-1.1 2.2-0.4 0.6-0.9 1l3.1 0.9c1.1 0.3 2.1 0.3 2.8 0q1-0.5 1.5-1.8c0.3-1.1 0.1-2-0.4-2.8-0.5-0.8-1.5-1.5-2.7-1.8l-0.5-0.2zm-11.2 3c0.5 0.8 1.3 1.5 2.4 1.8h0.1c0.9 0.3 1.8 0.1 2.6-0.3 0.7-0.4 1.3-1.2 1.6-2.1 0.2-0.9 0.1-1.9-0.3-2.7-0.4-0.8-1.1-1.4-2.2-1.8h-0.1c-0.9-0.2-1.8-0.1-2.6 0.3-0.8 0.4-1.4 1.1-1.7 2.2-0.3 0.9-0.2 1.9 0.2 2.6zm1.4 8.2l7.4 3.4c1.4 0.6 2.6 1.6 3.1 2.8 0.5 1.1 0.5 2.3-0.2 3.8q-0.5 1.2-1.4 2-0.6 0.5-1.3 0.8 0.3 0.7 0.3 1.4 0.1 1-0.4 2-0.4 1-1.2 1.7-0.7 0.7-1.7 1.1l-0.2 0.1-0.2-0.1-2.3-1 0.2-1q1.1-0.2 1.8-0.6c0.5-0.3 0.9-0.7 1.1-1.2q0.4-0.7 0.1-1.2-0.3-0.6-1.4-1.1l-1.6-0.7-0.5-0.2 0.2-0.5 0.9-1.9 0.2-0.5 0.5 0.2 1.6 0.7c0.6 0.3 1.2 0.4 1.7 0.2q0.8-0.2 1.2-1.1 0.4-0.9 0-1.5-0.3-0.7-1.5-1.3l-4.2-1.9q0.1 0.8 0.1 1.5-0.1 1.3-0.7 2.6c-0.9 1.8-2.1 3.2-3.6 4-1.5 0.7-3.2 0.8-5.1 0-1.6-0.8-2.7-2-3.2-3.6-0.4-1.5-0.3-3.4 0.6-5.4 0.9-1.9 2.2-3.3 3.8-4 1.6-0.7 3.6-0.6 5.8 0.4zm-0.8 7.6v-0.1c0.5-1 0.6-2.1 0.4-3-0.3-0.8-0.9-1.6-1.8-2h-0.1c-0.9-0.5-1.9-0.5-2.8-0.1-0.8 0.3-1.5 1.1-2.1 2.2-0.5 1.1-0.6 2.2-0.3 3.1 0.2 0.9 0.8 1.6 1.8 2 1 0.5 1.9 0.5 2.7 0.2 0.9-0.4 1.7-1.1 2.2-2.3zm-7.7 8.4c1.7 0.7 3.4 1.5 4.8 2.4 2.2 1.5 3.7 3.3 4.4 5.1 0.6 2 0.4 4-0.9 6-1.2 1.8-3 2.8-5.1 3-1.9 0.1-4.2-0.6-6.5-2.1-1.2-0.8-2.6-2-3.9-3.4-1.4-1.4-2.7-3-3.9-4.6l-0.2-0.3 0.2-0.2 1.2-1.9 0.5-0.6 0.4 0.6c1 1.5 2.1 3 3.5 4.4 1.2 1.3 2.5 2.4 4 3.4 1.7 1.2 3.3 1.7 4.6 1.7 1.3 0.1 2.3-0.5 3-1.5 0.7-1 0.8-2.2 0.3-3.3-0.5-1.3-1.6-2.5-3.4-3.7-1.3-0.8-2.9-1.7-4.8-2.4-1.7-0.7-3.5-1.2-5.2-1.5l-0.8-0.2 0.4-0.6 1.2-1.8 0.2-0.3 0.4 0.1c1.6 0.3 3.6 0.9 5.6 1.7zm-11.2 20.6c1.3-1.3 2.8-2.2 4.2-2.3 1.5-0.2 3 0.2 4.2 1.4 1.1 1.1 1.7 2.5 1.7 4 0 1.5-0.7 3.1-2 4.5q-1 1-2.3 1.5-1 0.4-2.2 0.4 0.1 1.1-0.3 2.2-0.4 1.3-1.5 2.4c-0.9 1-2.2 1.5-3.5 1.6-1.3 0.1-2.6-0.3-3.7-1.3v-0.1c-0.9-0.8-1.4-1.8-1.6-2.8q-0.2-1.1 0.1-2.1-1 0.2-2 0-1.5-0.3-2.9-1.7c-1.5-1.4-2.1-3.1-2-4.9 0.1-1.8 1-3.7 2.5-5.2v-0.1c1.5-1.5 3.2-2.5 4.9-2.9 1.7-0.3 3.4 0.1 4.8 1.5q0.6 0.5 0.9 0.9 0.4 0.4 0.6 0.8l0.2 0.3-0.3 0.3-1.6 1.6-0.4 0.5-0.4-0.6q-0.2-0.5-0.4-0.7-0.2-0.3-0.3-0.4c-0.9-0.9-1.9-1.3-2.9-1.2-1 0.1-2.1 0.7-3.1 1.7-1 1.1-1.6 2.2-1.6 3.3 0 1 0.4 2.1 1.4 3q1.2 1.2 2.2 1.3 0.8 0.2 1.5-0.6l1.2-1.1 0.3-0.4 0.4 0.4 1.3 1.3 0.4 0.3-0.4 0.4-1 1.1c-0.4 0.4-0.7 1.1-0.6 1.8 0.1 0.7 0.4 1.4 1 2 0.5 0.4 1.1 0.7 1.7 0.7 0.6 0 1.2-0.3 1.7-0.9q0.7-0.7 0.8-1.4 0.2-0.7-0.1-1.4-0.3-0.1-0.5-0.3-0.3-0.3-0.6-0.6h-0.1c-1-1.1-1.6-2.4-1.6-3.9 0-1.4 0.6-3 1.9-4.3zm4.1 6.8c0.7 0 1.4-0.3 2-1 0.7-0.7 1-1.5 1.1-2.2 0-0.8-0.3-1.6-1-2.2-0.6-0.6-1.3-0.9-2-0.8-0.7 0-1.4 0.3-2 0.9-0.7 0.7-1.1 1.6-1.1 2.4-0.1 0.7 0.2 1.5 0.9 2.1 0.5 0.5 1.3 0.8 2.1 0.8zm-20.5 0.7q1.2 1.1 2.2 2.5l4.5 6.6q1.6 2.4 1.4 4.3-0.2 2.1-2.4 3.5-1 0.8-2.2 0.9-0.9 0.1-1.8-0.2-0.1 0.9-0.5 1.7-0.6 1.1-1.8 1.9v0.1q-2 1.3-4 0.8-1.8-0.5-3.4-2.9h-0.1l-4.4-6.5q-1-1.5-1.7-3-0.5-1.5-0.7-3l-0.1-0.3 0.3-0.1 1.8-1.3 0.6-0.4 0.1 0.8q0.4 1.6 0.9 2.9 0.6 1.4 1.3 2.4l4.7 6.9q0.9 1.3 1.8 1.7 0.7 0.2 1.5-0.3 0.9-0.6 0.9-1.5c0.1-0.6-0.1-1.4-0.7-2.1l-3.1-4.7-0.3-0.4 0.4-0.3 1.8-1.2 0.4-0.3 0.3 0.4 3.2 4.7c0.5 0.7 1.1 1.2 1.7 1.4 0.5 0.1 1.2 0.1 1.7-0.3q0.8-0.6 0.8-1.4 0.1-0.9-0.9-2.3l-4.7-6.8q-0.7-1.1-1.7-2-1.1-1-2.5-2l-0.6-0.4 0.6-0.4 1.7-1.2 0.3-0.2 0.3 0.1q1.3 0.8 2.4 1.9zm-101.9-181.9l-2 0.6-0.4 0.1-0.2-0.2c-1.1-1.3-2.3-3-3.4-4.9-0.9-1.6-1.7-3.3-2.2-4.8-0.9-2.6-0.9-5-0.2-6.9 0.6-1.9 2.1-3.3 4.3-4 2.1-0.7 4.1-0.4 5.8 0.7 1.7 1.2 3 3.1 3.8 5.7 0.5 1.4 0.8 3.2 1 5.1 0.2 2 0.3 4 0.2 6v0.4l-0.3 0.1-2.1 0.7-0.8 0.2 0.1-0.8c0.2-1.8 0.2-3.7 0-5.6-0.2-1.7-0.5-3.4-1.1-5.1-0.6-2-1.5-3.5-2.5-4.3-1-0.8-2.2-1-3.3-0.6-1.2 0.4-2 1.2-2.3 2.4-0.4 1.3-0.3 3 0.4 5 0.5 1.5 1.3 3.2 2.2 4.9 1 1.5 2.1 3.1 3.2 4.4l0.5 0.6zm10.6-11.1l1.5-0.2q-1.2-0.8-1.9-1.9c-0.8-1.1-1.2-2.5-1.4-4.1-0.3-2 0-3.7 0.7-4.9 0.7-1.3 1.9-2.1 3.5-2.3q1.1-0.1 2 0.3 0.6 0.2 1.2 0.7 0.5-0.6 1.1-1 0.9-0.6 2-0.7 1.1-0.1 2 0.2 0.8 0.2 1.4 0.7 0.5-0.6 1.2-1 1-0.6 2.3-0.7c1.3-0.2 2.5 0.2 3.4 1 1 0.8 1.7 2 1.9 3.7 0 0.6 0 1.4-0.1 2.2-0.2 0.9-0.4 1.8-0.7 2.6l-0.1 0.3h-0.3l-2.2 0.3-0.8 0.1 0.3-0.8q0.5-1.2 0.6-2.3 0.2-1.1 0.1-2.1c-0.1-0.9-0.4-1.5-0.8-1.9q-0.6-0.6-1.5-0.5c-0.7 0.1-1.1 0.4-1.4 0.8-0.3 0.4-0.4 1-0.4 1.7l0.4 3.2 0.1 0.5-0.5 0.1-1.6 0.2h-0.5l-0.1-0.5-0.4-3.2q-0.1-1.2-0.6-1.6-0.5-0.5-1.5-0.4-1 0.1-1.4 0.7-0.4 0.6-0.2 1.8l0.3 3.2 0.1 0.5h-0.5l-1.6 0.2-0.5 0.1-0.1-0.5-0.4-3.2q-0.1-1.2-0.6-1.7-0.4-0.4-1.2-0.3c-0.7 0-1.1 0.3-1.4 0.9-0.2 0.6-0.3 1.7-0.1 3.1 0.3 2.2 1 3.6 2.1 4.5 1.2 0.9 2.7 1.3 4.7 1.3 3.6-0.1 6.3 0 8.2 0.7 2 0.7 3.2 2.1 3.7 4.7l0.1 0.5-0.5 0.1-2.1 0.3h-0.5l-0.1-0.4c-0.4-1.7-1.4-2.7-3.4-3.1-2.2-0.5-5.5-0.3-10.4 0.3q-0.7 0.1-1.4 0.2-0.7 0.1-1.4 0.2l-0.5 0.1v-0.6l-0.2-1.6-0.1-0.5zm28.3-0.5c0.2 1.8 0.7 3.7 1.3 5.3l0.2 0.8-0.8-0.1-2.1-0.1-0.4-0.1-0.1-0.3c-0.5-1.6-1-3.6-1.3-5.8-0.2-1.8-0.4-3.7-0.2-5.2 0.2-2.8 1-5 2.4-6.5 1.3-1.5 3.2-2.3 5.5-2.1 2.2 0.1 3.9 1.2 5.1 2.9 1.1 1.6 1.6 4 1.4 6.7-0.1 1.5-0.4 3.3-1 5.1-0.5 1.9-1.2 3.8-2.1 5.6l-0.1 0.3h-0.4l-2.2-0.2h-0.8l0.4-0.7c0.8-1.6 1.6-3.4 2.1-5.2 0.5-1.7 0.8-3.4 1-5.1 0.1-2.1-0.2-3.8-0.8-5-0.7-1.1-1.6-1.7-2.9-1.8-1.2-0.1-2.2 0.4-3 1.4q-1.2 1.5-1.5 4.8c-0.1 1.5 0 3.4 0.3 5.3zm23.5 7.9c-1.5 1.1-3.3 1.5-5.4 1.1-1.9-0.5-3.4-1.5-4.3-2.9-0.9-1.4-1.3-3.1-0.9-4.9q0.2-0.7 0.5-1.4 0.3-0.7 0.8-1.3l0.2-0.2h0.3l2.1 0.5 0.8 0.2-0.5 0.6q-0.4 0.5-0.7 1.1-0.2 0.5-0.4 1.1v0.1c-0.2 1.1-0.1 2.1 0.3 2.9 0.5 0.8 1.3 1.3 2.4 1.6q1.8 0.4 2.9-0.7c0.8-0.7 1.4-2 1.8-3.7 0.3-1.4 0.3-2.4-0.1-3.2-0.3-0.9-1-1.7-1.9-2.6-1.3-1.1-2.1-2-2.5-3-0.5-1-0.6-2-0.3-3.3q0.1-0.2 0.2-0.5 0-0.4 0.2-0.7l0.1-0.4 0.4 0.1 2.2 0.5 0.5 0.1-0.2 0.6q0 0.2-0.2 0.7v0.2c-0.2 0.9-0.2 1.4 0.1 2 0.4 0.6 1 1.3 2 2.3 1.2 1.3 2.1 2.5 2.5 3.7 0.4 1.3 0.4 2.6 0.1 4.2-0.5 2.3-1.6 4.1-3 5.2zm9.2 5.5c-2.2-0.9-3.5-2-4.1-3.5-0.5-1.5-0.4-3.2 0.4-5.2l4.7-12.2 0.2-0.5 0.4 0.2 2 0.8 0.5 0.1-0.2 0.5-4.7 12.2q-0.7 2-0.3 3.3 0.4 1.2 2.1 1.8c1 0.4 1.9 0.4 2.8 0 0.8-0.3 1.4-1.1 1.8-2.1 0.2-0.5 0.4-0.9 0.3-1.3 0-0.5-0.1-0.9-0.4-1.7q-0.2-0.7-0.2-1.3-0.1-0.7 0-1.2l0.2-0.5 0.5 0.2 2 0.8 0.5 0.1-0.2 0.5q-0.1 0.3-0.1 0.7 0 0.4 0.2 0.9c0.3 0.8 0.5 1.4 0.5 2.1 0.1 0.6-0.1 1.2-0.4 2-0.6 1.6-1.8 2.8-3.3 3.4-1.4 0.6-3.3 0.6-5.2-0.1z"/>
		</g>
		<g>
			<path fill-rule="evenodd" class="s0" d="m152.2 188.4c-4.9-11.8-14.1-11.3-25.2-10.7q-1 0.1-1.9 0.2c-5 0.1-9.1-0.2-12-1.4-2.9-1.3-4.6-3.5-4.9-7.4l-0.1-1.1v-90.6-1.2h88v49.4 1.9 40.8l-0.1 1.2c-0.5 2.7-1.3 4.9-3.4 6.3-2 1.4-5.4 2.2-11.2 2.1q-2.7-0.1-5-0.2c-13.2-0.3-17.2-0.4-24.2 10.7zm32.9-50.6q1.1 0.6 1.6 1.5 0.2 0.2 0.3 0.5 0.2 0.4 0.3 0.9 0.2-0.3 0.5-0.6 0.1-0.2 0.3-0.4 0.5-0.4 1.2-0.6 0.2-0.1 0.6-0.2l0.1-0.1v0.1c0.3 0.4 0.5 0.7 0.7 1q0.1 0.2 0.2 0.4 0.2 0.5 0.2 1 0.4-0.3 0.9-0.7 0.2-0.1 0.3-0.1c-0.2-4.1-3.3-7.4-7.2-7.4-3.7 0-6.8 3.1-7.2 7.1q0.4 0.3 0.6 0.6 0.1-0.4 0.3-0.8 0.3-0.5 0.6-1 0.2-0.2 0.4-0.4 0.1-0.2 0.3-0.4l0.1-0.1h0.2q0.1 0.1 0.2 0.1 0.7 0.4 1.2 0.9 0.2 0.2 0.3 0.3 0.3 0.4 0.5 0.8 0.1 0.2 0.2 0.4 0.2-0.5 0.5-1.1 0.5-0.8 1.5-1.6 0.1-0.1 0.1-0.1l0.1-0.1zm-3.4 23.1c-0.2-4.3-3.5-7.7-7.5-7.7-3.9 0-7.1 3.3-7.5 7.4q0.3 0.3 0.7 0.7 0-0.4 0.3-0.9 0.2-0.5 0.6-1 0.1-0.2 0.3-0.4 0.2-0.3 0.4-0.5l0.1-0.1 0.1 0.1q0.2 0 0.3 0.1 0.7 0.4 1.3 0.9 0.1 0.2 0.2 0.4 0.4 0.3 0.6 0.8 0.1 0.2 0.2 0.4 0.1-0.6 0.5-1.1 0.5-0.9 1.6-1.8 0 0 0.1-0.1h0.1 0.1c0.8 0.4 1.3 1 1.7 1.6q0.2 0.2 0.3 0.5 0.2 0.5 0.3 0.9 0.3-0.3 0.5-0.6 0.2-0.2 0.4-0.4 0.5-0.4 1.2-0.7 0.3-0.1 0.6-0.2h0.1l0.1 0.1q0.4 0.5 0.7 1 0.1 0.2 0.2 0.4c0.1 0.4 0.2 0.7 0.2 1.1 0.3-0.3 0.6-0.5 1-0.7q0.1-0.1 0.2-0.2zm-29.6-35.3h17.1v-19.1h-17.1zm42.8 0v-19.1h-7.8-9.3v19.1zm0-27.9v-18.7h-17v18.7zm-25.7-18.7h-17.1v18.7h17.1zm-38.8 96.2c9.5-0.5 17.3 0.2 21.7 10.5v-58.2h-21.7v19.3l13-18.3 1.6 1.4-2.9 4 3.9 3-1.1 1.5-2.4-1.6-0.9 1.2 2.3 1.8-1.3 1.8-2.3-1.7-0.9 1.2 2.2 1.8-1.4 1.9-3.8-3-4.8 6.6 6 8.5 1.5 2.1c0.3-0.1 0.9 0 1.2 0.1l0.1-0.1h0.1c0.9 0.2 1.2 0.9 1.1 1.7l0.7-0.3h0.1c0.7-0.3 1.5-0.4 2.1-0.3q1.1 0.3 1.9 1.2c0.2-0.3 0.5-0.6 0.8-0.7q0.3-0.1 0.6-0.1c0.7 0 1.4 0.6 1.4 1.4 0 0.6-0.4 1.1-1 1.3q-0.2 0.1-0.5 0.1-0.1 0-0.3 0c0.4 1.4-0.2 2.6-2.6 4.3q0.1 0 0.2 0c0.8 0 1.4 0.6 1.4 1.4 0 0.6-0.4 1.1-1 1.3q-0.2 0.1-0.5 0.1-0.2 0-0.4-0.1c-0.6-0.1-1-0.7-1-1.3 0-0.2 0.1-0.4 0.1-0.6q-1 0.7-1.9 1-1.1 0.4-2 0.3-0.4-0.1-0.7-0.2c-0.1 0.5-0.5 1-1 1.1-0.1 0.1-0.3 0.1-0.4 0.1h-0.1c-0.8 0-1.4-0.6-1.4-1.4 0-0.6 0.4-1.2 0.9-1.3l0.2-0.1q-0.1-0.1-0.1-0.2c-0.8-1.4-0.5-2.9 0.5-4.2 0.1-0.1 0.3-0.3 0.4-0.4-0.1 0-0.3-0.1-0.4-0.1-0.5-0.3-0.9-0.8-0.7-1.7l0.2-0.1q-0.1-0.6 0.3-1.1l0.1-0.2-0.3-0.5-6.8-9.3zm30-54.6q0.9-0.1 1.8 0.1-0.3-1.8-0.4-3.5c1.1 0 2.3 0.1 3.4 0.4q-0.2-1.6 0-3.2c-1.1 0.3-2.3 0.4-3.4 0.5q0.1-1.7 0.4-3.5-0.9 0.2-1.8 0.2c-0.5 0-0.9-0.1-1.4-0.2q0.4 1.7 0.5 3.5-1.7-0.1-3.4-0.5 0.3 1.7 0 3.3c1.1-0.3 2.3-0.5 3.4-0.5q0 1.7-0.4 3.5 0.7-0.1 1.3-0.1zm0.2-27.8q0.8 0.1 1.6 0.2-0.3-1.8-0.4-3.6 1.7 0.1 3.4 0.4-0.2-1.5 0-3.1-1.7 0.4-3.4 0.5 0.1-1.8 0.4-3.5-0.8 0.1-1.6 0.1-0.8 0.1-1.6-0.1 0.4 1.7 0.5 3.5-1.7-0.1-3.5-0.5c0.2 1.1 0.2 2.2 0 3.2 1.2-0.2 2.4-0.4 3.5-0.5q0 1.8-0.4 3.6 0.8-0.2 1.5-0.2zm26.2 0q0.7 0.1 1.4 0.2c-0.3-1.2-0.4-2.4-0.5-3.6q1.7 0.1 3.4 0.4-0.2-1.5 0-3.1-1.7 0.4-3.4 0.5 0.1-1.8 0.5-3.5-0.7 0.1-1.4 0.1-0.9 0.1-1.8-0.1 0.4 1.7 0.5 3.5-1.8-0.1-3.5-0.5c0.2 1.1 0.2 2.2 0 3.2 1.1-0.2 2.3-0.4 3.5-0.5q-0.1 1.8-0.4 3.6 0.8-0.2 1.7-0.2zm-0.5 28q0.8 0 1.6 0.1-0.4-1.8-0.5-3.5 1.7 0.1 3.5 0.4-0.3-1.6 0-3.1-1.7 0.3-3.5 0.4 0.1-1.7 0.5-3.5-0.8 0.2-1.6 0.2-0.8 0-1.6-0.2 0.4 1.8 0.5 3.5-1.8-0.1-3.5-0.4c0.2 1.1 0.2 2.2 0 3.2q1.7-0.4 3.5-0.5 0 1.7-0.4 3.5 0.8-0.1 1.5-0.1zm-41.9 45.2c-0.6 0.7-1.4 1.2-2.3 1.5q-0.4 0.2-0.8 0.3c-0.7 0.1-1.2 0-1.6-0.2-1.4-0.8-1.3-2.8 0-3.3 0.6-0.2 1.4-0.1 2.4 0.6l-0.1-0.1h0.1c-0.5-1.5 0.1-2.5 1-2.8 0.4-0.2 0.9-0.1 1.4 0.1 0.7 0.3 1.2 1.2 0.7 2.7-0.1 0.4-0.4 0.8-0.8 1.2zm11.9-22.2q0.1-0.1 0.2-0.5c0.1-0.2 0.1-0.5 0.2-0.9 0.1 0.4 0.1 0.9 0.1 1.4-0.1 0.4-0.1 0.8 0.2 1 0.1 0.3 0.4 0.8-0.1 0.5-0.2-0.4-0.3-0.6-0.5-0.5 0.1 0.9 0.2 1.7 0.6 2.5q0.3-0.1 0.6-0.2 0.9-0.2 1.8-0.5 0.6-0.1 1.2-0.2l0.8-0.1q1-0.1 2.1-0.2h0.1q1.1 0 2.2 0.1 0.3 0.1 0.7 0.1 0.8 0.1 1.6 0.3 0.7 0.2 1.4 0.4 0.4 0.2 0.9 0.3 0.2-0.8 0.4-1.6 0.1-0.5 0.3-1c0.2-1.3 0.6-2.6 1.3-3.9-0.7 0.2-1.2 0.4-1.6 0.7-0.3 0.2-0.6 0.4-0.8 0.7l-0.2 0.1-0.3 0.3v-0.3 0.1-0.3 0.1-0.5q0-0.1 0-0.3-0.1-0.2-0.2-0.5-0.2-0.6-0.7-1.2-0.3 0.1-0.6 0.2-0.5 0.2-0.9 0.5-0.3 0.3-0.6 0.7-0.1 0.3-0.3 0.6l-0.2 0.5-0.1-0.6-0.1-0.4q-0.2-0.7-0.6-1.3-0.5-0.7-1.4-1.3-0.1 0.1-0.2 0.2c-0.5 0.5-0.9 0.9-1.2 1.4q-0.5 0.7-0.6 1.5l-0.2 0.7-0.2-0.7q0 0 0-0.1-0.3-0.8-0.8-1.5-0.5-0.5-1.2-1-0.2-0.1-0.3-0.1-0.1 0.1-0.3 0.3l-0.3 0.4q-0.7 1-0.9 2l-0.1 0.5-0.2-0.4c-0.4-0.4-0.7-0.8-1.1-1.1q-0.3-0.2-0.7-0.4c0.6 1.2 0.7 2.3 0.8 3.3zm14.8-1.6v0.3c-0.2 0.4-0.2 0.9-0.3 1.3v-1.4q0.1-0.1 0.3-0.2zm-2.8 1.1v-2.3q0 0 0.1 0c-0.1 0.5 0 1 0.1 1.3q0.1 0.5-0.2 1zm1.2-0.4q-0.1 0-0.2 0.2c-0.1 0.2-0.1 0.3 0 0.4q0.1 0 0.2 0zm0 0.6v-0.6q0.1 0 0.1 0c0.1 0.1 0.2 0.2 0.1 0.4q-0.1 0.2-0.2 0.2zm1.3-1.1c-0.4 0.6-0.1 1.8-0.4 2.7 0.3-0.4 0.4-0.8 0.4-1.2zm-0.9-1.1q-0.1-0.5-0.3-1 0-0.2-0.1-0.4c-0.2-0.3-0.4-0.6-0.7-1l-0.1-0.1-0.1 0.1q-0.3 0.1-0.6 0.2-0.7 0.2-1.1 0.6-0.2 0.2-0.4 0.4-0.2 0.3-0.4 0.6-0.1-0.5-0.4-0.9-0.1-0.3-0.2-0.5c-0.4-0.6-0.9-1.1-1.6-1.5l-0.2-0.1-0.1 0.1q0 0.1-0.1 0.1-1 0.9-1.5 1.7-0.3 0.5-0.5 1-0.1-0.2-0.2-0.3-0.2-0.5-0.5-0.8-0.1-0.2-0.3-0.3-0.4-0.5-1.2-0.9-0.1-0.1-0.2-0.1l-0.1-0.1-0.1 0.1q-0.2 0.2-0.4 0.4-0.2 0.2-0.3 0.5-0.4 0.4-0.6 1-0.2 0.3-0.3 0.8-0.3-0.4-0.6-0.7c0.3-3.9 3.4-7 7.2-7 3.8 0 7 3.2 7.2 7.3q-0.2 0.1-0.3 0.1c-0.4 0.2-0.6 0.5-0.9 0.7zm-1.6-0.3v2.3q-0.1 0.1-0.2 0.3l-0.1 0.2v-2.2q0.1-0.5 0.3-0.6zm-1.9 1.5v-0.6q0 0 0.1-0.1v0.7q0 0-0.1 0zm0.1 0q0.1 0 0.2-0.3c0.1-0.2 0-0.3-0.1-0.4h-0.1zm1.5-0.8q0 0.1 0 0.2c-0.2-0.1-0.3-0.3-0.4-0.5q-0.2 0.7 0.2 1.2 0.2 0.5-0.1 1.2-0.1 0.4 0.1 0.8 0.2 0.1 0.2 0v-0.4q0 0 0-0.1v-0.2zm0 2.9v-0.4c0.1 0.2 0.1 0.3 0 0.4zm-1.6-2.6v0.5c-0.1 0-0.1-0.2-0.1-0.4q0-0.1 0.1-0.1zm-2.7 2.2v-3.2q0-0.2 0.1-0.5c0 0.2 0.1 1 0.3 0.7q0.2-0.2 0.4-0.7c0 0.6 0.2 1.3-0.4 2q-0.1 0.3-0.2 0.5c0 0.1-0.1 0.9 0.1 1q0 0 0.1 0c0 0.1-0.1 0.7-0.3 0.4q-0.1-0.1-0.1-0.2zm0-4.2v-0.5q0.1 0.1 0.1 0.3 0 0.1-0.1 0.2zm2.1 2.4q-0.1 0.1-0.2 0.2c-0.1 0.2-0.1 0.4 0 0.4q0.1 0.1 0.2 0zm0 0.6v-0.6q0 0 0.1 0c0.1 0.1 0.2 0.3 0.1 0.4q-0.1 0.2-0.2 0.2zm-2.1-3.5v0.5q-0.1 0-0.1 0v-0.5q0 0 0.1 0zm0 1.5v3.2q-0.1-0.1-0.1-0.3v-2.5q0-0.2 0.1-0.4zm-0.3 2.6q0.1 0.1 0.2 0.3v-2.5l-0.1 0.2q0 0-0.1 0.1zm0-3.6q0.1 0 0.2 0v-0.5q-0.1 0-0.2 0zm0-0.4v0.4q-0.1 0-0.1-0.2 0-0.1 0.1-0.2zm0 2.1v1.9q0-0.2-0.1-0.4v-1.5q0.1 0.1 0.1 0zm-0.1 0c-0.1-0.1-0.1-0.3-0.1-0.5-0.2 0.4-0.1 1.2 0.1 2zm-2.6 0.1v-0.4q0 0.1 0.1 0.2c0 0.1 0 0.2-0.1 0.2zm0.6 0.5c-0.1 0-0.1 0.1-0.1 0.3q0.1 0.1 0.1 0.2zm0 0.5v-0.5q0.1 0.1 0.2 0.2c0 0.2 0 0.3-0.1 0.4q0 0-0.1-0.1zm-0.6-1.4v0.4q-0.1 0-0.1-0.1v-0.4 0.1q0 0 0.1 0zm-1.6 1.7v-0.7l0.2 0.3c-0.1-0.5-0.1-0.9 0.1-1.3v2.3c-0.1-0.1-0.2-0.3-0.3-0.4zm0.3 1.9v-0.5 0.2q-0.1 0.3 0 0.3zm1.2-3.7q0-0.1 0-0.1 0-0.2-0.1-0.2-0.2 0 0 0.3l0.1 0.1c0 0 0 0.1 0 0.2q0.1 0 0.1 0c0 0 0-0.3-0.1-0.3zm-0.9 3.5c0.3-0.5 0.6-1.1 0.2-2.4q-0.1-0.4 0.2-0.8-0.2 0.1-0.4 0.1-0.1-0.3-0.2-0.6 0 0.1 0 0.2v2.3q0 0.2 0 0.3c0.1 0.2 0.1 0.3 0 0.5v0.1 0.5q0-0.1 0.2-0.2zm-2-2.4q-0.1 0-0.2 0.1-0.1-0.1-0.1-0.1v0.5q0 0.2 0.3 0zm1.4-0.1v0.8c-0.2-0.4-0.3-0.7-0.3-1.1zm-1.4 0.6v-0.5q0.1-0.1 0.3 0.1 0.1 0.1 0.3 0.3c0.1 0.2 0 0.2-0.2 0.2-0.1-0.1-0.2-0.3-0.4-0.1zm-0.3-0.6q-0.2-0.1-0.3-0.3c0 0.1-0.1 0.2 0 0.4 0.1 0.1 0.1 0.1 0.2 0.2q0 0.3 0.1 0.3zm13.7 0.2q0.1-0.2 0.3-0.4-0.2 0-0.3 0.1zm6.5 1.2q0.1-0.1 0.2-0.4c0-0.2 0.1-0.5 0.1-0.9 0.1 0.4 0.2 0.8 0.1 1.4-0.1 0.4 0 0.8 0.3 1 0.1 0.3 0.3 0.7-0.1 0.4-0.2-0.3-0.3-0.5-0.5-0.4 0 0.9 0.2 1.7 0.6 2.5q0.3-0.1 0.6-0.2 0.9-0.3 1.7-0.5 0.6-0.1 1.2-0.2l0.8-0.1q1.1-0.1 2.1-0.2h0.1q1.1 0 2.2 0.1 0.4 0 0.8 0.1 0.7 0.1 1.5 0.3 0.7 0.1 1.4 0.4c0.3 0 0.6 0.2 0.9 0.3q0.3-0.8 0.5-1.6 0.1-0.5 0.2-1c0.3-1.3 0.6-2.6 1.3-3.9-0.7 0.2-1.1 0.4-1.5 0.7-0.4 0.2-0.6 0.4-0.9 0.6l-0.1 0.2-0.4 0.2 0.1-0.2h-0.1l0.1-0.2h-0.1l0.1-0.4q-0.1-0.1-0.1-0.3 0-0.2-0.2-0.5-0.2-0.6-0.7-1.2-0.3 0.1-0.5 0.2-0.5 0.2-0.9 0.5-0.4 0.3-0.6 0.7-0.2 0.3-0.3 0.6l-0.3 0.5-0.1-0.6-0.1-0.4q-0.2-0.7-0.6-1.3-0.5-0.8-1.3-1.3-0.2 0.1-0.3 0.2c-0.5 0.5-0.9 0.9-1.2 1.3q-0.5 0.8-0.6 1.6l-0.2 0.7-0.2-0.7q0 0 0-0.1-0.3-0.8-0.8-1.5-0.5-0.6-1.2-1-0.1-0.1-0.3-0.2-0.1 0.2-0.3 0.3l-0.3 0.5q-0.7 1-0.9 2v0.5l-0.3-0.4c-0.3-0.4-0.7-0.8-1-1.1q-0.4-0.3-0.7-0.4c0.5 1.2 0.6 2.3 0.7 3.3zm14.8-1.6v0.3c-0.2 0.5-0.2 0.9-0.3 1.3v-1.4q0.1-0.1 0.3-0.2zm-2.8 1.1v-2.3q0.1 0 0.2 0c-0.2 0.5 0 1 0.1 1.3 0 0.3-0.1 0.7-0.3 1zm1.2-0.4q-0.1 0-0.2 0.2c-0.1 0.2-0.1 0.3 0 0.4q0.1 0 0.2 0zm0 0.6v-0.6q0.1 0 0.2 0c0.1 0 0.1 0.2 0 0.4q-0.1 0.1-0.2 0.2zm1.3-1.1c-0.3 0.6-0.1 1.8-0.4 2.7 0.3-0.4 0.4-0.8 0.4-1.3zm-2.5-1.3v2.3q-0.1 0.1-0.2 0.2v0.3-2.2c0-0.3 0.1-0.5 0.2-0.6zm-1.9 1.5v-0.6q0.1 0 0.1-0.1v0.7q0 0-0.1 0zm0.1 0q0.2-0.1 0.2-0.3c0.1-0.2 0.1-0.3 0-0.4h-0.2zm1.6-0.8q-0.1 0.1-0.1 0.2c-0.2-0.1-0.3-0.3-0.4-0.5q-0.2 0.7 0.2 1.2 0.2 0.5 0 1.2-0.2 0.4 0.1 0.8 0.1 0 0.1 0v-0.4q0 0 0-0.1v-0.2c0 0 0-2.2 0.1-2.2zm0 2.9v-0.4c0 0.2 0 0.3 0 0.4zm-1.7-2.6v0.5c-0.1 0-0.1-0.2-0.1-0.3q0.1-0.1 0.1-0.2zm-2.7 2.2v-3.2l0.1-0.5c0 0.2 0.1 1 0.3 0.7q0.2-0.2 0.4-0.7c0 0.6 0.2 1.3-0.4 2.1q-0.1 0.2-0.2 0.4c0 0.1-0.1 0.9 0.1 1q0 0 0.1 0c0 0.1-0.1 0.7-0.3 0.4q-0.1-0.1-0.1-0.2zm0-4.2v-0.5q0.1 0.1 0.1 0.3 0 0.1-0.1 0.2zm2.1 2.4q-0.1 0.1-0.2 0.2c-0.1 0.2-0.1 0.4 0 0.4q0.1 0.1 0.2 0zm0 0.7v-0.7q0.1 0 0.1 0c0.2 0.1 0.2 0.3 0.1 0.4-0.1 0.1-0.2 0.2-0.2 0.3zm-2.1-3.6v0.5q-0.1 0.1-0.1 0v-0.5q0 0 0.1 0zm0 1.5v3.2q-0.1-0.1-0.1-0.3v-2.5zm-0.2 2.5q0 0.2 0.1 0.4v-2.5l-0.1 0.2q0 0 0 0.1zm0-3.6q0 0.1 0.1 0.1v-0.6q-0.1 0-0.1 0.1zm0-0.5v0.5q-0.2-0.1-0.2-0.3 0.1-0.1 0.2-0.2zm0 2.1v1.9q-0.1-0.2-0.2-0.4v-1.5q0.1 0.1 0.2 0zm-0.1 0c-0.1-0.1-0.2-0.3-0.2-0.5-0.2 0.4-0.1 1.2 0.2 2zm-2.7 0.1v-0.4q0 0.1 0.1 0.2c0 0.1 0 0.2 0 0.2q-0.1 0-0.1 0zm0.7 0.5c-0.1 0-0.1 0-0.1 0-0.1 0-0.1 0.2-0.1 0.3q0.1 0.2 0.2 0.2zm0 0.5v-0.5q0 0.1 0.1 0.2c0.1 0.2 0 0.3-0.1 0.4q0 0 0-0.1zm-0.7-1.4v0.4q-0.1 0-0.1-0.1v-0.3q0 0 0.1 0zm-1.6 1.8v-0.8l0.2 0.3c-0.1-0.5 0-0.9 0.1-1.3v2.3q-0.1-0.2-0.3-0.4zm0.4 1.9v-0.5l-0.1 0.2q-0.1 0.3 0.1 0.3zm1.2-3.7q0-0.1-0.1-0.1c0-0.1-0.1-0.2-0.1-0.1-0.1 0-0.1 0.1 0 0.2 0 0.1 0.1 0.1 0.1 0.1 0 0 0 0.1 0.1 0.2zm-1 3.5c0.3-0.5 0.6-1.1 0.2-2.4q-0.1-0.4 0.2-0.7-0.2 0-0.4 0.1c-0.1-0.3-0.1-0.5-0.2-0.7q0 0.1 0 0.2v2.4q0 0.1 0 0.2c0.1 0.3 0.1 0.3 0 0.6v0.5q0 0 0.2-0.2zm-2-2.4c-0.1 0-0.1 0.1-0.2 0.1q-0.1-0.1-0.1-0.1v0.6q0.1 0.1 0.3-0.1zm1.4 0v0.7c-0.2-0.3-0.3-0.6-0.3-1zm-1.4 0.5v-0.5q0.1 0 0.3 0.1 0.1 0.1 0.3 0.3c0.1 0.2 0 0.3-0.2 0.3-0.1-0.2-0.2-0.3-0.4-0.2zm-0.3-0.5q-0.2-0.1-0.2-0.3c-0.1 0-0.2 0.1-0.1 0.4 0.1 0.1 0.1 0.1 0.2 0.2q0 0.2 0.1 0.3zm13.8 0.1q0-0.2 0.2-0.4-0.2 0-0.2 0.1zm-26.1 21.9c0.1-0.1 0.2-0.3 0.2-0.5 0.1-0.2 0.2-0.6 0.2-0.9 0.1 0.4 0.2 0.8 0.1 1.4-0.1 0.4 0 0.8 0.3 1.1 0.1 0.3 0.3 0.7-0.1 0.4-0.2-0.3-0.3-0.6-0.6-0.4 0.1 0.8 0.3 1.7 0.7 2.5q0.3-0.1 0.6-0.2 0.9-0.2 1.9-0.5 0.6-0.1 1.2-0.2l0.8-0.1q1.1-0.2 2.2-0.2h0.1q1.2 0 2.3 0.1 0.4 0 0.8 0.1c0.5 0.1 1.1 0.2 1.6 0.3q0.7 0.2 1.5 0.4 0.4 0.1 0.9 0.3 0.3-0.8 0.5-1.7 0.1-0.4 0.2-0.9c0.3-1.4 0.7-2.8 1.4-4.1-0.7 0.1-1.2 0.4-1.6 0.7-0.3 0.2-0.6 0.4-0.9 0.7l-0.1 0.1-0.4 0.3v-0.2-0.1 0.1-0.3-0.4q0-0.1 0-0.3-0.1-0.3-0.2-0.6-0.2-0.6-0.7-1.2-0.3 0.1-0.6 0.2-0.5 0.2-0.9 0.5-0.4 0.4-0.7 0.8-0.2 0.3-0.3 0.6l-0.2 0.5-0.2-0.6-0.1-0.4q-0.2-0.7-0.6-1.4-0.5-0.8-1.4-1.3-0.2 0.1-0.3 0.2c-0.5 0.5-0.9 0.9-1.2 1.4q-0.5 0.8-0.7 1.6l-0.1 0.7-0.2-0.7q-0.1-0.1-0.1-0.1-0.2-0.9-0.8-1.6-0.5-0.6-1.3-1-0.1-0.1-0.3-0.2-0.1 0.2-0.3 0.3l-0.3 0.5q-0.8 1-0.9 2.1l-0.1 0.5-0.3-0.4c-0.3-0.5-0.7-0.9-1.1-1.2q-0.3-0.2-0.7-0.3c0.6 1.2 0.7 2.3 0.8 3.4zm15.4-1.7v0.3c-0.2 0.5-0.2 1-0.2 1.4v-1.5q0.1-0.1 0.2-0.2zm-2.9 1.2v-2.4q0.1-0.1 0.2 0c-0.1 0.5 0 1 0.1 1.3 0 0.4 0 0.7-0.3 1.1zm1.3-0.5q-0.2 0.1-0.2 0.2c-0.1 0.2-0.1 0.4 0 0.5q0.1 0 0.2 0zm0 0.6v-0.6q0-0.1 0.1 0c0.1 0 0.2 0.2 0.1 0.4q-0.1 0.2-0.2 0.2zm1.4-1.1c-0.4 0.6-0.2 1.8-0.5 2.9 0.3-0.5 0.4-1 0.5-1.4zm-2.7-1.4v2.4q-0.1 0.1-0.2 0.3v0.2-2.3q0.1-0.5 0.2-0.6zm-1.9 1.5v-0.6q0 0 0.1-0.1v0.7q-0.1 0.1-0.1 0zm0.1 0q0.1 0 0.2-0.2c0.1-0.2 0-0.4-0.1-0.5q-0.1 0-0.1 0zm1.6-0.9q0 0.1-0.1 0.3c-0.2-0.2-0.3-0.4-0.4-0.6q-0.2 0.8 0.2 1.3 0.2 0.6-0.1 1.3-0.1 0.4 0.2 0.8 0.1 0.1 0.2 0v-0.4q-0.1-0.1-0.1-0.1l0.1-0.3zm0 3.1v-0.4c0 0.2 0 0.3 0 0.4zm-1.7-2.7v0.5c-0.2 0-0.2-0.2-0.1-0.4q0-0.1 0.1-0.1zm-2.9 2.3v-3.4q0.1-0.2 0.1-0.5c0.1 0.2 0.1 1 0.4 0.8q0.2-0.2 0.3-0.8c0.1 0.7 0.3 1.3-0.4 2.2q-0.1 0.2-0.1 0.4c-0.1 0.2-0.2 1 0 1q0.1 0.1 0.1 0.1c0 0.1 0 0.7-0.3 0.4q-0.1-0.1-0.1-0.2zm0-4.4v-0.5q0.1 0.1 0.1 0.2 0 0.2-0.1 0.3zm2.2 2.5q-0.1 0.1-0.2 0.2c-0.1 0.2-0.1 0.4 0 0.5q0.1 0 0.2 0zm0 0.6v-0.6q0.1-0.1 0.2 0c0.1 0 0.1 0.2 0 0.4q-0.1 0.2-0.2 0.2zm-2.2-3.7v0.5q0 0-0.1 0v-0.5q0.1 0 0.1 0zm0 1.5v3.4q-0.1-0.1-0.1-0.3v-2.7q0-0.1 0.1-0.4zm-0.2 2.7q0 0.2 0.1 0.4v-2.6l-0.1 0.2q0 0 0 0.1zm0-3.8q0 0.1 0.1 0.1v-0.6q-0.1 0-0.1 0.1zm0-0.5v0.5q-0.1-0.1-0.1-0.3 0-0.2 0.1-0.2zm0 2.2v2q-0.1-0.2-0.1-0.4v-1.6q0 0 0.1 0zm-0.1 0c-0.1-0.1-0.2-0.3-0.2-0.5-0.2 0.4-0.1 1.2 0.2 2.1zm-2.8 0.1v-0.4q0 0 0.1 0.1c0 0.1 0 0.2-0.1 0.3zm0.7 0.5q-0.1 0-0.1 0c-0.1 0-0.1 0.2-0.1 0.3q0.1 0.1 0.2 0.2zm0 0.6v-0.6q0.1 0.1 0.1 0.2c0.1 0.2 0.1 0.4 0 0.4q-0.1 0-0.1 0zm-0.7-1.5v0.4q-0.1-0.1-0.1-0.2v-0.3 0.1q0-0.1 0.1 0zm-1.7 1.8v-0.8l0.3 0.3c-0.2-0.5-0.1-1 0-1.4v2.5q-0.1-0.3-0.2-0.5zm0.3 2v-0.5l-0.1 0.2q0 0.3 0.1 0.3zm1.3-3.9q0 0-0.1 0c0-0.2-0.1-0.2-0.1-0.2q-0.1 0 0 0.2c0 0.1 0.1 0.2 0.1 0.2q0 0 0 0.1 0.1 0.1 0.1 0.1zm-1.1 3.7c0.4-0.6 0.7-1.2 0.3-2.6q-0.1-0.4 0.1-0.8-0.2 0.1-0.4 0.1-0.1-0.3-0.1-0.7-0.1 0.2-0.1 0.3v2.5q0 0.1 0.1 0.2c0.1 0.3 0 0.4-0.1 0.6v0.1 0.4q0.1 0 0.2-0.1zm-2.1-2.6l-0.1 0.1q-0.1-0.1-0.2-0.1v0.6q0.1 0.1 0.3 0zm1.6 0v0.7c-0.2-0.3-0.4-0.6-0.4-1zm-1.5 0.5v-0.5c0.1 0 0.2 0 0.3 0.1 0.1 0.1 0.3 0.2 0.4 0.3 0.1 0.3 0 0.3-0.2 0.3-0.1-0.2-0.2-0.3-0.5-0.2zm-0.3-0.5q-0.1-0.2-0.2-0.4c-0.1 0.1-0.2 0.2-0.1 0.5 0.1 0 0.2 0.1 0.2 0.2q0 0.2 0.1 0.3zm14.4 0.1q0.1-0.2 0.2-0.4-0.1 0-0.2 0.1zm-65-24.1l1.8-1.2 0.5-0.4 0.9 1.2-2.2 1.7 1.2 1.7 2.2-1.6 0.9 1.2-2.1 1.7 1.2 1.8 3.7-2.9 0.4 0.6 1.1-0.8v0.4l-0.9 0.6 0.3 0.4 0.6-0.4v0.4l-0.4 0.3 0.2 0.3 0.2-0.1v0.3-0.3l0.2-0.1v0.3l-0.2 0.2 0.3 0.3 0.1-0.1v0.3-0.3l0.9-0.7v0.4l-0.9 0.6v0.1l0.3 0.3 0.6-0.5v0.4l-0.4 0.3 0.6 0.9 1.6 2.2-5.8 8.1-1.4 1.9c-0.3 0-0.8 0-1.1 0.1h-0.1l-0.1-0.1c-0.8 0.3-1.1 0.9-1.1 1.6l-0.6-0.2q-0.4-0.2-0.7-0.2-0.3-0.1-0.7-0.1-0.3 0-0.7 0.1c-0.7 0.1-1.3 0.5-1.7 1.1h-0.1c-0.1-0.4-0.4-0.6-0.8-0.7q-0.1-0.1-0.3-0.1-0.1 0-0.2 0c-0.7 0-1.3 0.6-1.3 1.3 0 0.6 0.4 1.1 0.9 1.3q0.2 0.1 0.4 0.1h0.1q0.1 0 0.2 0h0.1c-0.4 1.3 0.2 2.4 2.4 4h0.1q-0.1 0-0.1 0 0 0-0.1 0c-0.8 0-1.4 0.6-1.4 1.4 0 0.6 0.4 1.1 0.9 1.2q0.2 0.1 0.5 0.1c0.2 0 0.3 0 0.4 0 0.6-0.2 1-0.7 1-1.3q0-0.3-0.2-0.6l0.1 0.1v-0.1q0.9 0.7 1.7 1h0.1q0.6 0.2 1.1 0.3 0.4 0 0.8 0 0.3-0.1 0.7-0.2c0.1 0.5 0.4 0.9 0.9 1 0.1 0.1 0.3 0.1 0.3 0.1h0.2c0.7 0 1.3-0.6 1.3-1.3 0-0.6-0.4-1.1-0.9-1.3h-0.2q0.1-0.1 0.1-0.2c0.8-1.3 0.6-2.8-0.5-4-0.1-0.1-0.3-0.3-0.4-0.4 0.1 0 0.3-0.1 0.4-0.1 0.5-0.3 0.8-0.8 0.7-1.6l-0.2-0.1q0.1-0.6-0.3-1.1l-0.1-0.1 0.3-0.5 2.3-3.1 0.2-0.3 0.2-0.3 0.9-1.2 2.8-3.9v-3.3l-1.8-2.6-1 0.8v-0.4l0.8-0.6-0.2-0.3-0.6 0.4v-0.4l0.4-0.3-0.3-0.3-0.2 0.1v-0.4h0.1-0.1l-0.2-0.3-0.6 0.4v-0.4l0.4-0.3-0.3-0.4-0.1 0.1v-0.3 0.3l-0.2 0.2v-0.4l0.2-0.1-0.2-0.3-0.2-0.3v-0.1 0.1l-5.9-8.2-1.5 1.2h0.1-0.1l0.5 0.6-3.8 2.8zm10 3.7v0.4l-0.2 0.2v-0.4zm0 0.9v0.4l-0.2 0.2v-0.4zm-0.3-1.8v0.4l-0.2 0.2v-0.4zm0 1v0.4l-0.2 0.2v-0.4zm1.1 0.1l-0.9 0.7v0.4l0.9-0.7zm-9.1-12.9l-0.4-0.4-1.4 1.2 1.4 2 0.7 1 1.5-1.2-1.8-2.6zm22.4-39.9v-8.4c-0.7-0.6-1.3-1-1.9-1.2-0.7-0.1-1.3 0-1.9 0.5q-0.7 0.5-1.4 0.6-0.7 0-1.5-0.3v8.1c0.4 0.3 0.7 0.4 1.2 0.5q0.2 0 0.4-0.1h0.1 0.1v-0.1q0.4-0.1 0.9-0.4 0.5-0.3 1-0.4 0-0.1 0.1-0.1h0.1 0.1 0.1 0.1 0.1 0.1 0.1 0.1 0.1q0 0 0.1 0 0.5 0.1 1.1 0.5v0.1h0.1c0.3 0.2 0.5 0.4 0.7 0.7zm0 1.2v-0.9q-0.3-0.4-0.6-0.6v-0.1q-0.5-0.4-1-0.5l-0.1-0.1q-0.1 0-0.1 0-0.8-0.2-1.6 0.2h-0.1q-0.2 0.1-0.4 0.3-0.6 0.3-1 0.5h-0.1-0.1-0.1q-0.2 0-0.3 0-0.2 0-0.3 0h-0.1v-0.1h-0.1-0.1v-0.1h-0.1-0.1v-0.1h-0.1-0.1q-0.1-0.1-0.2-0.2h-0.1v-0.1-8l-0.5 0.3v0.1 0.1l0.1 7.1v0.7q0.4 0.4 0.8 0.6v0.1h0.1 0.1q0.3 0.1 0.5 0.2 0.8 0 1.7-0.6 0.7-0.5 1.3-0.6v-0.1h0.1 0.1q0.5-0.1 0.9 0.1c0.7 0.3 1.2 0.9 1.6 1.8zm0.1-0.9v0.8c0.5-0.7 1-1.3 1.6-1.6 0.5-0.2 1.1-0.2 1.7 0.1h0.1q0.2 0.2 0.5 0.3v0.1h0.1v0.1h0.1q0.4 0.3 0.8 0.4h0.1v0.1h0.1q0.2 0 0.4 0 0.1 0 0.2 0 0.6-0.1 1.1-0.5l0.1-0.1h0.1v-0.1h0.1l0.1-0.1v-7.8-0.1-0.1l-0.5-0.4q0 1.9 0 4 0 1.2 0 2.5v0.2 0.1 0.1 0.1 0.1 0.1 0.1 0.1 0.1 0.1 0.1 0.1 0.1 0.1 0.1 0.1h-0.1q-0.3 0.3-0.6 0.4 0 0-0.1 0l-0.1 0.1q-0.2 0-0.4 0h-0.1-0.1q-0.3 0-0.7-0.2h-0.1v-0.1h-0.1q-0.2-0.1-0.4-0.3h-0.1q-0.4-0.3-0.8-0.4l-0.1-0.1q-0.6-0.1-1.1 0.1-0.1 0-0.1 0h-0.1c-0.5 0.2-1 0.7-1.5 1.2zm0-8.7v8.4q0.4-0.4 0.7-0.7h0.1l0.1-0.1h0.1v-0.1h0.1l0.1-0.1h0.1q0.2-0.2 0.5-0.3 0.1 0 0.2 0h0.1c0.5-0.1 1 0 1.7 0.5 0.5 0.3 1 0.6 1.5 0.6 0.4 0.1 0.9 0 1.3-0.4q0-2.1 0-4.2 0.1-1.1 0.1-2.3v-0.1-0.1-0.1-0.1q0-0.6 0-1.3v-0.1c-0.4 0.2-0.8 0.4-1.2 0.4q-0.6 0.1-1.2-0.3c-0.8-0.7-1.6-0.9-2.3-0.8-0.7 0.1-1.4 0.5-2 1.2zm-0.8 9.7h0.6q-0.5-1-1.2-1.4h-0.1q-0.1-0.1-0.2-0.1-0.9-0.5-2.4 0.6-0.1 0-0.2 0.1-0.7 0.5-1.4 0.4-0.3 0-0.5-0.1-0.1 0-0.2-0.1-0.5-0.2-1-0.7v-0.1l-0.1-7.7h-0.2v8q0.7 0.8 1.5 1.1c0.6 0.1 1.2 0.1 1.8-0.2q0.3-0.2 0.6-0.5c0.4-0.2 0.8-0.5 1.3-0.5q0.5 0 0.9 0.2 0.3 0.2 0.7 0.6l0.2 0.2h-0.3c-0.2 0.1-0.3 0.2-0.4 0.3q0 0.1 0 0.2 0 0.1 0 0.2c0.1 0.1 0.2 0.3 0.5 0.3h0.9v0.1-0.1h1q0.2-0.1 0.3-0.2 0.1-0.2 0.1-0.3 0-0.1-0.1-0.2-0.1-0.2-0.3-0.3h-0.1v-0.2q0.2-0.4 0.6-0.7 0.4-0.2 1.1-0.1c0.6 0 0.9 0.3 1.3 0.6 0.3 0.2 0.6 0.5 1.1 0.6q0.6 0.1 1.3-0.2 0.7-0.3 1.4-0.9v-8h-0.4v7.7 0.1q-0.9 0.8-1.7 0.9h-0.1q0 0-0.1 0h-0.1q-0.1 0-0.1 0h-0.1-0.1l-0.1-0.1q-0.5-0.1-1-0.6-0.1 0-0.1-0.1h-0.1l-0.1-0.1q0 0-0.1 0l-0.1-0.1q-0.1 0-0.2-0.1h-0.1-0.1-0.1v-0.1h-0.1-0.1-0.1-0.1q-0.4-0.1-0.8 0.1-0.4 0.2-0.7 0.5h-0.1q-0.4 0.4-0.8 1h0.7v0.5h-1.6zm-5.2-5.3h1.6l0.2 0.6h-0.2q0-0.1-0.1-0.2 0-0.1-0.1-0.1-0.1-0.1-0.1-0.1-0.1 0-0.3 0h-0.5v0.7h0.4q0.1 0 0.2 0 0-0.1 0.1-0.1 0-0.1 0-0.2h0.1v0.8h-0.1v-0.1-0.1q-0.1 0-0.1-0.1 0 0-0.1 0 0 0-0.1 0h-0.4v0.6 0.1q0.1 0.1 0.1 0.1h0.1 0.3q0.2 0 0.4-0.1 0.1-0.1 0.2-0.2 0.1-0.1 0.1-0.3l0.2 0.1-0.2 0.6h-1.6v-0.1q0.1 0 0.1 0 0.1 0 0.1-0.1 0 0 0-0.1v-1.4q0-0.1 0-0.1 0 0-0.1 0h-0.1c0 0 0-0.2-0.1-0.2zm0.9-1.9v-0.1h-0.3l0.3-0.8v-0.3l-0.5 1.4q-0.1 0.2-0.2 0.3 0 0-0.1 0.1h0.5q-0.1-0.1-0.1-0.1-0.1 0-0.1-0.1 0 0 0.1-0.1l0.1-0.3zm0.3 0h-0.3v-0.1h0.3l-0.3-0.8v-0.3-0.2h0.1l0.6 1.6q0.1 0.2 0.1 0.3 0.1 0 0.2 0.1h-0.7q0.1-0.1 0.1-0.1 0.1 0 0.1-0.1 0 0-0.1-0.2zm6.9-1v-0.1h-0.3l0.3-0.7v-0.4l-0.6 1.5q-0.1 0.2-0.1 0.3-0.1 0-0.2 0v0.1h0.6v-0.1q-0.2 0-0.2 0 0 0 0-0.1 0-0.1 0-0.2l0.1-0.3zm0.4 0h-0.4v-0.1h0.3l-0.3-0.7v-0.4l0.1-0.1 0.6 1.6q0.1 0.2 0.2 0.3 0 0 0.1 0v0.1h-0.7v-0.1q0.1 0 0.2 0 0 0 0-0.1 0-0.1 0-0.2zm2.8 4.7v-0.1h-0.3l0.3-0.8v-0.3l-0.6 1.4q0 0.2-0.1 0.3-0.1 0-0.2 0.1h0.6c-0.1-0.1-0.1-0.1-0.2-0.1q0 0 0-0.1 0 0 0-0.1l0.1-0.4h0.4zm0.3 0h-0.3v-0.1h0.3l-0.3-0.7v-0.4-0.1h0.1l0.6 1.6c0.1 0.2 0.1 0.2 0.1 0.3q0.1 0 0.2 0.1h-0.7q0.1-0.1 0.1-0.1 0.1 0 0.1-0.1c0 0 0-0.1-0.1-0.2zm-7.1-5.9v0.7q-0.1-0.3-0.2-0.4-0.2-0.2-0.4-0.2-0.2 0-0.3 0.2-0.1 0-0.2 0.3-0.1 0.2-0.1 0.5 0 0.2 0.1 0.5 0.1 0.1 0.2 0.2 0.2 0.1 0.4 0.2 0.1-0.1 0.3-0.1 0.1-0.1 0.3-0.3-0.1 0.2-0.3 0.4-0.2 0.1-0.4 0.1-0.5 0-0.7-0.4-0.2-0.3-0.2-0.6 0-0.3 0.1-0.5 0.2-0.3 0.4-0.4 0.2-0.2 0.4-0.2 0.2 0 0.4 0.1 0 0.1 0.1 0.1 0.1-0.1 0.1-0.2zm5.5 3.7v0.6q-0.1-0.3-0.3-0.4-0.1-0.1-0.3-0.1-0.2 0-0.4 0.1-0.1 0.1-0.2 0.3-0.1 0.2-0.1 0.5 0.1 0.3 0.1 0.5 0.1 0.2 0.3 0.3 0.1 0.1 0.3 0.1 0.2 0 0.3-0.1 0.1-0.1 0.3-0.3-0.1 0.3-0.3 0.4-0.1 0.1-0.4 0.1-0.4 0-0.7-0.3-0.1-0.3-0.1-0.7 0-0.3 0.1-0.5 0.1-0.3 0.3-0.4 0.2-0.1 0.4-0.1 0.2 0 0.4 0.1 0.1 0 0.1 0 0 0 0.1 0 0 0 0-0.1zm0-2.7q0.1 0 0.2 0 0 0 0 0.1 0.1 0 0.1 0.1v1.3q0 0.1-0.1 0.2 0 0.1-0.1 0.1h-0.1v0.1h1 0.1v-0.2c-0.1 0-0.1 0-0.2 0h-0.4v-1.7h0.3 0.3q0 0 0 0.1v-0.2q-0.2 0-0.4 0h-0.7zm1.1-0.1q0.2 0 0.3 0 0.2 0.1 0.4 0.4 0.2 0.2 0.2 0.6 0 0.2-0.1 0.4-0.1 0.2-0.2 0.4-0.2 0.1-0.3 0.1-0.2 0-0.3 0v-0.1q0.2-0.1 0.2-0.1 0.1 0 0.2-0.1 0.1-0.1 0.2-0.3 0-0.2 0-0.3 0-0.2 0-0.4-0.1-0.1-0.2-0.2-0.1-0.1-0.2-0.2-0.1-0.1-0.2-0.1zm-4.5 2.6h0.8v0.1h-0.1q-0.1 0-0.1 0-0.1 0.1-0.1 0.1 0 0 0 0.2v1.3q0 0.1 0 0.2 0 0 0.1 0 0 0 0.1 0h0.1v0.2h-0.8v-0.2q0.1 0 0.1 0 0.1 0 0.1 0 0-0.1 0-0.2v-1.4q0-0.1 0-0.1 0-0.1-0.1-0.1 0 0-0.1 0zm-4 0.1h0.6l0.6 1.5 0.5-1.5h0.6v0.1q-0.1 0-0.2 0 0 0 0 0.1 0 0 0 0.1v1.3 0.2q0.1 0 0.2 0v0.2h-0.7v-0.2q0.1 0 0.1 0 0.1 0 0.1 0 0 0 0-0.1v-0.1-1.4l-0.6 1.7h-0.1l-0.7-1.7v1.4c0 0.1 0 0.1 0 0.2h0.1q0 0 0.1 0h0.1v0.1h-0.7v-0.1q0.1 0 0.2 0 0-0.1 0.1-0.2v-1.3q-0.1-0.1-0.1-0.1 0-0.1 0-0.1-0.1 0-0.1 0h-0.1zm-19.3 6h0.6v-0.1h-0.1v-0.1-0.1h-0.1v-0.1l-0.1-0.1q-0.4-0.7-1.1-1h-0.1-0.1l-0.1-0.1q-0.2 0-0.6 0-0.1 0.1-0.2 0.1-0.1 0-0.1 0l-0.1 0.1q-0.5 0.1-1.1 0.5-0.2 0.2-0.4 0.3h-0.1v0.1h-0.1-0.1-0.1v0.1h-0.1-0.1q-0.1 0-0.1 0v0.1q-0.2 0-0.4 0h-0.1-0.1-0.1-0.1q-0.7-0.1-1.4-0.8v-0.1l-0.1-0.1v-7.7h-0.3v8q0.7 0.8 1.5 1.1 0.9 0.2 1.8-0.2 0.4-0.2 0.6-0.5c0.4-0.2 0.8-0.5 1.4-0.5q0.4-0.1 0.8 0.2 0.4 0.2 0.7 0.6l0.2 0.2h-0.2c-0.3 0-0.4 0.2-0.5 0.3q0 0.1 0 0.2 0 0.1 0 0.2c0.1 0.1 0.3 0.3 0.5 0.3h0.9v0.2-0.2h1q0.2-0.1 0.3-0.2 0.1-0.2 0.1-0.2 0-0.2-0.1-0.3-0.1-0.2-0.3-0.3h-0.1l0.1-0.2q0.1-0.4 0.5-0.7 0.4-0.2 1.1-0.1c0.6 0 0.9 0.3 1.3 0.6 0.3 0.2 0.6 0.5 1.1 0.6q0.6 0.1 1.3-0.2 0.6-0.3 1.4-0.9v-8h-0.4v7.7 0.1q-0.5 0.5-1 0.7-0.4 0.2-0.8 0.2-0.8 0.1-1.6-0.6c-0.7-0.5-1.3-0.7-1.9-0.6h-0.1q-0.1 0.1-0.3 0.1-0.1 0.1-0.2 0.1c-0.5 0.3-0.9 0.7-1.2 1.3l-0.1 0.1h0.6v0.5h-1.5zm0.7-1.2v-8.4c-0.7-0.6-1.3-1-1.9-1.2-0.7-0.1-1.3 0-1.9 0.5q-0.7 0.5-1.4 0.6-0.7 0-1.5-0.3v8.1q0.2 0.1 0.4 0.2l0.1 0.1h0.1v0.1h0.1 0.1 0.1v0.1q0.2 0 0.3 0 0.5 0.1 1.2-0.3 0.2-0.1 0.4-0.2 0.9-0.6 1.7-0.6h0.1q0.2 0.1 0.3 0.1 0.3 0.1 0.6 0.2 0.5 0.3 1.1 0.8c0 0 0 0.1 0.1 0.2zm0 1.2v-1q-0.9-1-1.8-1.2-0.5-0.1-0.9 0-0.6 0.1-1.2 0.5-0.3 0.2-0.5 0.3h-0.1-0.1q-0.5 0.2-1 0.2c-0.4 0-0.8-0.2-1.1-0.5h-0.1v-0.1-8l-0.5 0.4q0 1.9 0 3.9 0.1 2 0.1 4.1 0.7 0.7 1.5 0.8h0.1q0.8 0 1.6-0.5 0.7-0.5 1.3-0.7h0.1 0.1q0.5-0.1 0.9 0 0.5 0.2 0.9 0.7v0.1h0.1v0.1l0.1 0.1q0.3 0.3 0.5 0.8zm0.1-0.9v0.8c0.5-0.7 1-1.3 1.6-1.6q0.7-0.3 1.5 0h0.1v0.1h0.1 0.1v0.1h0.1 0.1v0.1h0.1 0.1q0 0.1 0.1 0.1 0.6 0.5 1.1 0.7h0.1q0.2 0 0.4 0 0.8-0.1 1.7-0.8v-8.1l-0.5-0.3q0 0.9 0 1.8v0.1 0.2 0.1 0.1 0.1 0.1 0.1 0.1 0.1 0.1 0.1 0.1 0.1 0.1 0.1 0.1 0.1 0.1 0.2 1 0.1 0.1 0.1 0.1q0 1.4 0 2.7v0.1 0.1q-0.1 0.1-0.2 0.1h-0.1q-0.6 0.4-1.1 0.3c-0.5 0-1-0.3-1.5-0.6-0.6-0.4-1.1-0.6-1.5-0.5h-0.1q-0.2 0-0.4 0c-0.6 0.3-1.2 0.7-1.8 1.4zm0-8.7v8.4c0.6-0.6 1.1-1 1.6-1.2h0.1q0-0.1 0.1-0.1 0.1 0 0.2 0 0.1-0.1 0.1-0.1h0.1c0.5 0 1 0.1 1.6 0.6q0.1 0.1 0.3 0.2h0.1q0.5 0.3 1 0.4c0.5 0.1 0.9-0.1 1.4-0.4q0-2.1 0-4.2v-1.8-0.3-0.1-0.1-0.1-0.1-0.1-0.1-0.1-0.1-0.1-0.1-0.1-0.1-0.1-0.1-0.1-0.1-0.1-0.1-0.1-0.1c-0.4 0.2-0.8 0.4-1.1 0.4q-0.6 0.1-1.2-0.3-1.2-1-2.3-0.8c-0.7 0.1-1.4 0.5-2 1.2zm-5.8 1.4h0.8v0.1q-0.1 0-0.2 0v0.2 1.4 0.1q0 0 0 0.1h0.1 0.1q0.2 0 0.4-0.1 0.1 0 0.2-0.1 0.1-0.1 0.2-0.4l0.1 0.1-0.2 0.6h-1.5v-0.1h0.1q0.1 0 0.1 0 0 0 0.1-0.1 0 0 0-0.1v-1.4q0-0.1 0-0.2-0.1 0-0.1 0 0 0-0.1 0h-0.1zm2.8 2.1h0.1l0.1 0.1h1.2v-0.1h0.2l0.2 0.6-0.2 0.1q-0.1-0.3-0.2-0.4-0.1-0.1-0.3-0.1-0.1 0-0.1 0 0 0-0.1 0.1v0.1 1.3q0 0.1 0.1 0.2 0.1 0.1 0.2 0.1v0.1h-0.8v-0.1q0.1 0 0.2-0.1 0.1-0.1 0.1-0.1v-1.5q-0.1-0.1-0.1 0 0-0.1 0-0.1-0.2 0-0.3 0.1-0.1 0-0.2 0.1-0.1 0.1-0.2 0.3l-0.1-0.1zm0.3-3.4h0.8v0.1q-0.1 0-0.1 0-0.1 0.1-0.1 0.1 0 0 0 0.2v1.3q0 0.1 0 0.2 0 0 0.1 0 0 0 0.1 0v0.2h-0.8v-0.2h0.1q0.1 0 0.1 0 0.1 0 0.1 0 0-0.1 0-0.2v-1.4q0-0.1 0-0.1 0 0-0.1-0.1 0 0-0.1 0h-0.1zm-2.2 5.7v-0.2q-0.1 0-0.3 0v-0.9q0.1 0 0.2 0 0 0 0.1 0v-0.1q-0.1 0-0.2 0h-0.7q0.2 0 0.2 0.1 0.1 0 0.1 0.2v1.4q0 0.1-0.1 0.2 0 0.1-0.2 0.1h0.8q-0.2 0-0.2-0.1-0.1 0 0-0.2v-0.6h0.2zm1.1 0.7h-0.6l-0.5-0.7v-0.3q0.1-0.1 0.2-0.1 0.1-0.2 0.1-0.3 0-0.2-0.1-0.3-0.1-0.2-0.2-0.2v-0.1q0.2 0 0.3 0.1 0.1 0 0.2 0.1c0.1 0.1 0.1 0.2 0.1 0.3q0 0.2-0.1 0.4-0.1 0.1-0.4 0.1l0.4 0.6q0.2 0.2 0.3 0.3 0.1 0 0.3 0.1zm7.9-4.9h1.5l0.2 0.5h-0.1q-0.1-0.1-0.1-0.1-0.1-0.1-0.1-0.2-0.1 0-0.2 0-0.1-0.1-0.3-0.1h-0.4v0.8h0.3q0.1 0 0.2-0.1 0.1 0 0.1-0.1 0 0 0-0.2h0.1v0.9h-0.1v-0.1-0.1q0-0.1 0-0.1-0.1-0.1-0.1-0.1-0.1 0-0.2 0h-0.3v0.7 0.1q0 0 0.1 0h0.3q0.2 0 0.4-0.1 0.1 0 0.2-0.1 0.1-0.1 0.2-0.3h0.1l-0.2 0.7h-1.6v-0.2h0.2q0-0.1 0-0.1v-1.4q0-0.1 0-0.1 0-0.1-0.1-0.1h-0.1zm-1.8 0.9v-0.2h-0.1q-0.2 0-0.3 0v-0.8h0.1 0.1 0.2v-0.1h-0.2-0.1q-0.1-0.1-0.1-0.1v-0.7q0.1-0.1 0.2-0.1 0.1 0 0.2 0v-0.1h-0.1-0.9v0.1h0.1q0.1 0 0.1 0 0.1 0.1 0.1 0.3v1.3q0 0.2-0.1 0.2 0 0.1-0.1 0.1h-0.1v0.1h0.9zm0.3-1.1q0.3 0.1 0.4 0.2 0.1 0.1 0.1 0.3 0 0.2-0.1 0.3-0.1 0.1-0.2 0.2c-0.2 0-0.3 0.1-0.5 0.1v-0.1q0.2-0.1 0.3-0.2 0.2-0.1 0.2-0.3 0-0.1-0.1-0.2-0.1-0.1-0.2-0.2-0.1 0-0.2 0v-0.1c0.1-0.1 0.1-0.1 0.2-0.1q0.1 0 0.2-0.1 0-0.1 0-0.2 0-0.2-0.1-0.3-0.1-0.1-0.3-0.2v-0.1q0.2 0 0.3 0.1 0.2 0 0.3 0.2 0.1 0.1 0.1 0.3 0 0.1-0.1 0.3-0.1 0.1-0.3 0.1zm3.1 3.2v0.7c-0.1-0.1-0.1-0.2-0.1-0.3q-0.1-0.1-0.2-0.2-0.2 0-0.3 0-0.2 0-0.3 0.1-0.1 0-0.1 0.2 0 0.1 0.1 0.1 0.1 0.1 0.4 0.3 0.3 0.1 0.4 0.2 0.1 0.1 0.2 0.2 0.1 0.1 0.1 0.2-0.1 0.3-0.2 0.4-0.2 0.2-0.5 0.2h-0.2q0-0.1-0.2-0.1-0.1-0.1-0.1-0.1-0.1 0-0.1 0.1c0 0 0 0 0 0.1h-0.1v-0.7h0.1q0 0.2 0.1 0.3 0.1 0.1 0.2 0.2 0.1 0 0.3 0 0.2 0 0.3 0 0.1-0.1 0.1-0.3 0 0-0.1-0.1 0-0.1-0.1-0.1 0-0.1-0.3-0.2-0.3-0.2-0.4-0.2-0.1-0.1-0.1-0.2-0.1-0.1-0.1-0.2 0-0.2 0.2-0.4c0.1-0.1 0.2-0.2 0.4-0.2q0.2 0.1 0.4 0.1 0 0.1 0.1 0.1 0 0 0-0.1 0 0 0.1 0zm-3.6 0.2v-0.1h-0.4l0.4-0.8v-0.3l-0.6 1.4q-0.1 0.2-0.2 0.3 0 0.1-0.1 0.1h0.6q-0.2 0-0.2-0.1-0.1 0-0.1 0 0-0.1 0.1-0.2l0.1-0.3zm0.3 0h-0.3v-0.1h0.3l-0.3-0.8v-0.3-0.1l0.7 1.6q0 0.2 0.1 0.2 0 0.1 0.2 0.1h-0.7q0.1 0 0.1 0 0-0.1 0.1-0.1-0.1-0.1-0.1-0.2zm-3.2 19.9h0.6q-0.1-0.2-0.2-0.4h-0.1v-0.1q-0.4-0.5-0.8-0.8h-0.1v-0.1h-0.1-0.1v-0.1h-0.1c-0.6-0.2-1.3 0-2.2 0.5v0.1h-0.1-0.1q-0.7 0.5-1.4 0.6 0 0-0.1 0h-0.1q-0.8-0.1-1.6-0.9v-0.1-0.1q-0.1-3.8-0.1-7.7h-0.3v8q0.7 0.9 1.6 1.1 0.8 0.3 1.7-0.2 0.4-0.1 0.7-0.4c0.4-0.3 0.7-0.5 1.3-0.6q0.5 0 0.8 0.2 0.4 0.3 0.7 0.6l0.2 0.3h-0.2c-0.2 0-0.4 0.1-0.4 0.3q-0.1 0.1-0.1 0.2 0 0 0.1 0.1c0 0.2 0.2 0.3 0.4 0.4h0.9v0.2-0.2h1q0.2-0.1 0.3-0.3 0.1-0.1 0.1-0.2 0-0.1-0.1-0.2-0.1-0.2-0.3-0.3h-0.1l0.1-0.2q0.2-0.5 0.6-0.7 0.3-0.2 1-0.2c0.6 0.1 1 0.4 1.3 0.6 0.3 0.3 0.6 0.5 1.1 0.6q0.6 0.1 1.3-0.1 0.7-0.3 1.4-0.9v-8.1h-0.3v7.8 0.1h-0.1q-0.8 0.7-1.5 0.9h-0.1-0.1-0.1q-0.8 0-1.6-0.7-0.3-0.2-0.6-0.3v-0.1h-0.1-0.1-0.1-0.1v-0.1h-0.1-0.1-0.1-0.1q0-0.1-0.1-0.1-0.3 0-0.6 0.1l-0.1 0.1h-0.1-0.1q-0.3 0.2-0.6 0.4v0.1h-0.1v0.1q-0.4 0.3-0.7 0.8h0.6v0.6l-1.5-0.1zm0.7-1.3v-8.4c-0.7-0.5-1.3-1-1.9-1.1-0.7-0.1-1.3 0-1.9 0.5q-0.7 0.5-1.4 0.5-0.7 0.1-1.5-0.3v0.1 8.1h0.1c0.3 0.3 0.7 0.4 1.1 0.4 0.4 0 0.9-0.1 1.5-0.5h0.1v-0.1q0.8-0.4 1.5-0.5 0.3 0 0.6 0.1 0.3 0.1 0.6 0.2 0.3 0.1 0.5 0.3l0.1 0.1h0.1v0.1h0.1v0.1h0.1v0.1h0.1v0.1h0.1v0.1zm0 1.2v-0.9-0.1h-0.1c-0.5-0.6-1.1-1-1.7-1.2q-0.9-0.2-1.9 0.3-0.1 0.1-0.2 0.2-0.7 0.4-1.2 0.5h-0.1-0.1-0.1-0.1c-0.5 0-0.8-0.2-1.2-0.5v-0.1-8l-0.6 0.4v0.5l0.1 7.4q0.7 0.7 1.3 0.8l0.1 0.1q0.1 0 0.2 0 0.5 0 1-0.2h0.1l0.1-0.1h0.1q0.2-0.1 0.4-0.2 0.8-0.6 1.4-0.7h0.1 0.1q0.4-0.1 0.8 0.1c0.6 0.2 1.1 0.8 1.5 1.7zm0.1-0.9v0.9c0.4-0.7 0.9-1.3 1.4-1.6h0.1 0.1v-0.1c0.7-0.2 1.4-0.1 2.3 0.5q0.4 0.3 0.8 0.5 0.4 0.2 0.8 0.1 0.8 0 1.7-0.8v-7.8-0.1-0.1l-0.5-0.4c0 1.3 0 2.6 0 4q0 1.1 0 2.2v0.1 0.1 0.1 0.1 0.1 0.1 0.1 0.1 0.1 0.1 0.1 0.1 0.1 0.1 0.1 0.1 0.1 0.1 0.1 0.1h-0.1c-0.4 0.4-0.9 0.6-1.4 0.5q-0.1 0-0.2 0l-0.1-0.1c-0.4-0.1-0.7-0.3-1.1-0.5q-0.4-0.3-0.7-0.4h-0.1v-0.1q-0.7-0.2-1.2 0c-0.6 0.2-1.2 0.7-1.8 1.3zm0-8.7v8.4-0.1h0.1v-0.1h0.1v-0.1h0.1v-0.1h0.1c0.4-0.4 0.8-0.7 1.3-0.9h0.1c0.6-0.2 1.2-0.1 2 0.5q0.2 0.1 0.4 0.2h0.1v0.1q0.5 0.2 0.9 0.3 0.6 0.1 1.2-0.3 0.1-0.1 0.2-0.1v-0.1-0.1-0.2q0-1.9 0-3.8 0-1.9 0-3.8v-0.1-0.1-0.1c-0.4 0.2-0.7 0.4-1.1 0.4-0.4 0.1-0.8 0-1.2-0.4q-1.2-0.9-2.3-0.7-1.1 0.1-2 1.2zm-1 10.7v-0.1zm-4.8-9.3h0.8v0.1h-0.1q-0.1 0-0.1 0.1v0.1 1.5 0.1q0 0.1 0.1 0h0.1q0.2 0 0.4 0 0.1-0.1 0.2-0.2 0.1-0.1 0.2-0.3h0.1l-0.2 0.7h-1.5v-0.1q0.2 0 0.2 0 0-0.1 0-0.1 0 0 0-0.1v-1.5q0 0 0-0.1 0 0-0.2-0.1zm2.8 2.2h0.1 1.3 0.1l0.2 0.6h-0.1q-0.1-0.2-0.2-0.3-0.2-0.1-0.4-0.1h-0.1v0.1 1.4q0 0.1 0 0.1 0 0 0 0.1 0.1 0 0.1 0c0 0 0.1 0 0.2 0v0.1h-0.8v-0.1q0.1 0 0.1 0 0.1 0 0.1-0.1 0 0 0-0.1v-1.4-0.1q0 0-0.1 0-0.2 0-0.2 0-0.2 0.1-0.2 0.1-0.1 0.2-0.2 0.3h-0.1zm0.3-3.5h0.8v0.2h-0.1q0 0-0.1 0 0 0 0 0.1-0.1 0 0 0.1v1.4q-0.1 0.1 0 0.1 0 0.1 0 0.1 0.1 0 0.1 0h0.1v0.1h-0.8v-0.1h0.1q0.1 0 0.1 0 0 0 0.1-0.1 0 0 0-0.1v-1.4q0-0.1 0-0.2-0.1 0-0.1 0 0 0-0.1 0h-0.1zm-2.2 5.7v-0.3q-0.1 0-0.3 0h-0.1v-0.8q0.2-0.1 0.3-0.1 0 0 0.1 0.1v-0.2h-0.2-0.8v0.1h0.1q0.1 0 0.2 0.1 0 0 0 0.2v1.3q0 0.2 0 0.2 0 0.1-0.2 0.1h-0.1v0.1h0.9v-0.1h-0.1q-0.1 0-0.1-0.1-0.1 0-0.1-0.2v-0.6h0.1 0.1zm1.1 0.8h-0.5l-0.6-0.8v-0.3q0.2 0 0.2-0.1 0.2-0.1 0.2-0.3 0-0.2-0.1-0.3-0.1-0.1-0.3-0.1v-0.1q0.2 0 0.4 0 0.1 0.1 0.2 0.2 0.1 0.1 0.1 0.3 0 0.2-0.1 0.3-0.1 0.1-0.4 0.2l0.4 0.6q0.2 0.2 0.3 0.2 0.1 0.1 0.3 0.1c0 0 0 0.1-0.1 0.1zm8-5h1.5l0.2 0.5-0.1 0.1q-0.1-0.1-0.1-0.2-0.1-0.1-0.1-0.1-0.1-0.1-0.2-0.1h-0.3-0.4v0.7h0.3q0.1 0 0.2-0.1 0.1 0 0.1-0.1 0 0 0-0.1v-0.1h0.1v0.9h-0.1v-0.1-0.1q0-0.1 0-0.1-0.1 0-0.1 0-0.1 0-0.2 0h-0.3v0.6 0.1q0 0.1 0 0.1h0.1 0.3q0.2 0 0.4-0.1 0.1-0.1 0.2-0.2 0.1-0.1 0.2-0.3l0.1 0.1-0.2 0.6h-1.6v-0.1q0.1 0 0.1 0 0.1 0 0.1-0.1 0 0 0-0.1v-1.4q0-0.1 0-0.1 0 0-0.1 0h-0.1zm-1.8 0.9v-0.1h-0.1q-0.2 0-0.3-0.1v-0.8h0.1q0 0 0.1 0 0.1 0 0.2 0v-0.1h-0.2-0.1q-0.1 0-0.1 0v-0.8q0.1 0 0.2 0 0.1 0 0.2 0v-0.1h-0.2-0.8q0.2 0 0.2 0.1 0.1 0 0.1 0.2v1.3q0 0.2-0.1 0.3 0 0-0.2 0v0.1h0.9zm0.4-1q0.2 0 0.3 0.1 0.2 0.1 0.1 0.3 0.1 0.2-0.1 0.3 0 0.2-0.2 0.2-0.2 0.1-0.5 0.1v-0.1q0.2 0 0.4-0.1 0.1-0.2 0.1-0.3 0-0.1-0.1-0.2 0-0.2-0.2-0.2-0.1-0.1-0.2-0.1v-0.1q0.1 0 0.2 0 0.1-0.1 0.2-0.2 0-0.1 0-0.2c0-0.1 0-0.2-0.1-0.3q-0.1-0.1-0.3-0.1v-0.1q0.2 0 0.3 0 0.2 0.1 0.3 0.2 0.1 0.2 0.1 0.3 0 0.2-0.1 0.3 0 0.1-0.2 0.2zm3 3.2v0.7q0-0.2-0.1-0.3-0.1-0.1-0.2-0.2-0.1-0.1-0.3-0.1c-0.1 0-0.2 0-0.2 0.1q-0.1 0.1-0.1 0.2 0 0.1 0.1 0.2 0 0.1 0.4 0.2 0.3 0.2 0.4 0.3c0.1 0 0.1 0.1 0.1 0.1q0.1 0.2 0.1 0.3 0 0.2-0.2 0.4-0.2 0.1-0.4 0.1-0.1 0-0.2 0-0.1 0-0.2-0.1-0.1 0-0.2 0 0 0-0.1 0 0 0 0 0.1v-0.7q0.1 0.3 0.1 0.4 0.1 0 0.2 0.1c0.1 0.1 0.2 0.1 0.3 0.1q0.2 0 0.3-0.1 0.1-0.1 0.1-0.2 0-0.1 0-0.2-0.1 0-0.1-0.1-0.1-0.1-0.4-0.2-0.2-0.1-0.4-0.2 0-0.1-0.1-0.2-0.1-0.1-0.1-0.2 0-0.2 0.2-0.4 0.2-0.1 0.4-0.1 0.2 0 0.4 0 0.1 0.1 0.1 0.1 0.1-0.1 0.1-0.1zm-3.6 0.2v-0.1h-0.3l0.3-0.8v-0.3l-0.6 1.5q-0.1 0.2-0.1 0.2 0 0.1-0.1 0.1h0.5q-0.1 0-0.2-0.1 0-0.1 0.1-0.2l0.1-0.3zm0.3 0h-0.3v-0.1h0.3l-0.3-0.8v-0.3-0.1h0.1l0.6 1.6q0 0.2 0.1 0.2 0 0.1 0.2 0.1h-0.7q0.1 0 0.1-0.1 0-0.1 0-0.2zm-9.9 10.9h0.1zm7.3 8.3v-8.4c-0.7-0.6-1.3-1-1.9-1.1-0.7-0.2-1.3-0.1-1.9 0.4q-0.7 0.5-1.4 0.6-0.7 0.1-1.5-0.3v0.1 8h0.1v0.1c0.3 0.2 0.7 0.4 1.1 0.4q0.1 0 0.3 0 0.2-0.1 0.5-0.1v-0.1h0.1 0.1l0.1-0.1h0.1 0.1v-0.1h0.1 0.1v-0.1h0.1 0.1l0.1-0.1q0.6-0.3 1.1-0.4h0.1 0.1 0.1 0.1 0.1 0.1 0.1 0.1v0.1h0.1 0.1q0.2 0.1 0.3 0.1l0.1 0.1h0.1 0.1v0.1q0.5 0.2 1 0.8zm0 1.2v-0.9q-0.4-0.5-0.8-0.8h-0.1q0-0.1-0.1-0.1h-0.1v-0.1q-0.3-0.1-0.6-0.2h-0.1l-0.1-0.1h-0.1-0.1-0.1-0.1-0.1-0.1-0.1-0.1v0.1h-0.1-0.1-0.1v0.1h-0.1q-0.3 0.1-0.7 0.4c-0.7 0.4-1.2 0.5-1.6 0.5h-0.1q-0.4 0-0.8-0.3h-0.1v-0.1h-0.1-0.1v-0.1-0.1-8l-0.6 0.4v0.4l0.1 7.6c0.6 0.5 1.1 0.8 1.6 0.8h0.1 0.1 0.1q0.7 0 1.3-0.5 0.2-0.1 0.4-0.2v-0.1q0.9-0.5 1.6-0.4 0.2 0 0.4 0.1c0.6 0.2 1.1 0.8 1.5 1.6zm0.1-0.9v0.9q0.4-0.8 1-1.2v-0.1h0.1q0.2-0.2 0.5-0.3 0.3-0.2 0.7-0.2h0.1 0.1 0.1q0.6 0.1 1.2 0.5l0.1 0.1q0.7 0.7 1.5 0.6h0.1q0.4 0 0.7-0.2h0.1 0.1v-0.1h0.1q0.3-0.2 0.7-0.5v-7.8-0.1-0.1l-0.5-0.4q0 2 0 4 0 0.9 0 1.9v0.1 0.1 0.1 0.1 0.1 0.1 0.1 0.1 0.1 0.1 0.1 0.1 0.1 0.1 0.1 0.1 0.1 0.1 0.1 0.1 0.1 0.1 0.1l-0.1 0.1q-0.3 0.3-0.7 0.4-0.1 0-0.1 0h-0.1q0 0.1 0 0l-0.1 0.1q0 0-0.1 0h-0.1-0.1q0 0-0.1 0-0.1-0.1-0.2-0.1-0.5-0.2-1-0.5h-0.1q0 0-0.1-0.1-0.5-0.3-0.8-0.4h-0.1v-0.1q-0.6-0.1-1.1 0.1-0.1 0-0.2 0l-0.1 0.1h-0.1c-0.4 0.2-0.9 0.6-1.4 1.1zm0-8.7v8.4c0.6-0.6 1.2-1 1.7-1.2h0.1c0.5-0.2 1-0.2 1.6 0.2h0.1q0.1 0.1 0.3 0.2c0.4 0.3 0.8 0.5 1.3 0.6h0.1v0.1h0.1 0.1 0.1q0.3-0.1 0.7-0.2v-0.1h0.1q0.1-0.1 0.3-0.2v-0.1-0.1-0.2q0-1.8 0-3.7 0-1.9 0-3.8v-0.1-0.1-0.1c-0.4 0.2-0.8 0.3-1.2 0.4-0.4 0-0.8-0.1-1.1-0.4q-1.3-0.9-2.3-0.8c-0.7 0.1-1.4 0.5-2 1.2zm-0.8 9.7h0.6q-0.2-0.3-0.4-0.6v-0.1h-0.1v-0.1q-0.1 0-0.1-0.1 0 0-0.1-0.1-0.3-0.3-0.6-0.4l-0.1-0.1h-0.1-0.1q-0.1-0.1-0.1-0.1-0.2 0-0.4 0-0.3 0-0.7 0.1-0.1 0.1-0.2 0.1l-0.1 0.1q-0.4 0.1-0.7 0.4-0.5 0.3-0.9 0.5h-0.1-0.1q-0.3 0.1-0.6 0.1-0.2 0-0.4-0.1l-0.1-0.1q-0.3-0.1-0.5-0.2l-0.1-0.1h-0.1v-0.1q-0.2-0.1-0.4-0.3v-0.1-0.1q-0.1-2-0.1-4.1 0-1.8 0-3.6h-0.3v8q0.7 0.9 1.6 1.1 0.8 0.2 1.7-0.2 0.4-0.2 0.7-0.4c0.3-0.3 0.7-0.6 1.3-0.6q0.5 0 0.8 0.2 0.4 0.2 0.7 0.6l0.2 0.2-0.2 0.1q-0.4 0-0.5 0.3 0 0 0 0.1 0 0.1 0.1 0.2c0 0.2 0.2 0.3 0.4 0.3h0.9v0.1-0.1h1q0.2-0.1 0.3-0.2 0.1-0.1 0.1-0.2 0-0.1-0.1-0.3-0.1-0.2-0.3-0.2l-0.1-0.1 0.1-0.2q0.1-0.4 0.5-0.7 0.4-0.2 1.1-0.1c0.6 0 0.9 0.3 1.3 0.6 0.3 0.2 0.6 0.5 1.1 0.6q0.6 0.1 1.3-0.2 0.7-0.3 1.4-0.9v-8h-0.4v7.7 0.1 0.1q-0.9 0.8-1.7 0.8-0.6 0.1-1-0.2h-0.1-0.1v-0.1q-0.3-0.1-0.5-0.3c-0.6-0.5-1.2-0.6-1.7-0.6h-0.1l-0.1 0.1q-0.2 0-0.3 0.1-0.3 0.1-0.5 0.2-0.6 0.5-1 1.2h0.6v0.6l-1.5-0.1v-0.5zm-5-8.2h0.8v0.1h-0.1-0.1q0 0-0.1 0.1v0.1 1.4 0.1q0 0.1 0.1 0.1h0.1 0.1q0.2 0 0.3-0.1 0.2 0 0.3-0.1 0.1-0.1 0.2-0.4l0.1 0.1-0.2 0.7h-1.5v-0.2q0.1 0 0.2 0 0-0.1 0-0.2v-1.4q0-0.1 0-0.1 0-0.1 0-0.1h-0.2zm2.8 2.1h0.1v0.1h1.3v-0.1h0.1l0.2 0.6-0.1 0.1c0-0.2-0.1-0.3-0.2-0.4q-0.2-0.1-0.4-0.1-0.1 0-0.1 0 0 0 0 0.1v1.4q0 0.1 0 0.1 0 0.1 0 0.1 0.1 0 0.1 0c0 0 0.1 0 0.2 0v0.2h-0.8v-0.2q0.1 0.1 0.1 0 0.1 0 0.1 0 0-0.1 0-0.2v-1.4q0-0.1 0-0.1 0 0-0.1 0-0.2 0-0.2 0.1-0.1 0-0.2 0.1-0.1 0.1-0.2 0.3l-0.1-0.1zm0.3-3.4h0.8v0.1q-0.1 0-0.2 0 0 0 0 0.1 0 0 0 0.2v1.3q0 0.1 0 0.1 0 0.1 0 0.1 0.1 0 0.2 0v0.1h-0.8v-0.1h0.1q0.1 0 0.1 0 0.1 0 0.1-0.1 0 0 0-0.1v-1.4q0-0.1 0-0.1 0-0.1-0.1-0.1 0 0-0.1 0h-0.1zm-2.2 5.7v-0.3q-0.1 0-0.3 0h-0.1v-0.8q0.2 0 0.3 0 0 0 0.1 0v-0.1q-0.1-0.1-0.2-0.1h-0.7v0.1q0.1 0 0.2 0.1 0.1 0 0.1 0.2v1.3q0 0.2-0.1 0.3 0 0-0.2 0v0.1h0.8v-0.1q-0.2 0-0.2 0-0.1-0.1-0.1-0.3v-0.6h0.1 0.2zm1.1 0.8h-0.6l-0.5-0.8v-0.3q0.1 0 0.1 0 0.2-0.2 0.2-0.4 0-0.2-0.1-0.3-0.1 0-0.2-0.1v-0.1q0.1 0 0.3 0.1 0.1 0 0.2 0.1c0.1 0.1 0.1 0.2 0.1 0.3q0 0.2-0.1 0.3-0.1 0.2-0.4 0.2l0.4 0.6q0.2 0.2 0.3 0.3 0.1 0.1 0.3 0.1zm7.9-5h1.5l0.2 0.6h-0.1q-0.1-0.1-0.1-0.2-0.1-0.1-0.1-0.1-0.1-0.1-0.2-0.1-0.1 0-0.3 0h-0.4v0.7h0.3q0.1 0 0.2 0 0.1-0.1 0.1-0.1 0-0.1 0-0.2h0.2v0.9h-0.2v-0.1-0.2q-0.1-0.1-0.1-0.1-0.1 0-0.2 0h-0.3v0.6 0.1q0 0.1 0 0.1 0 0 0.1 0h0.3q0.2 0 0.4-0.1 0.1 0 0.2-0.2 0.1 0 0.2-0.2h0.1l-0.2 0.6h-1.6v-0.1h0.1q0.1 0 0.1-0.1 0 0 0-0.1v-1.3q0-0.1 0-0.2 0 0-0.1 0h-0.1zm-1.8 0.9v-0.2h-0.1q-0.2 0-0.3 0v-0.8h0.1 0.1 0.2v-0.1h-0.1-0.2q-0.1-0.1-0.1-0.1v-0.7q0.1-0.1 0.2-0.1 0.1 0 0.2 0v-0.1h-0.1-0.9v0.1h0.1q0.1 0 0.1 0.1 0.1 0 0.1 0.2v1.3q0 0.2-0.1 0.2 0 0.1-0.1 0.1h-0.1v0.1h0.9zm0.4-1.1q0.2 0.1 0.3 0.2 0.2 0.1 0.2 0.3 0 0.1-0.1 0.3-0.1 0.1-0.3 0.2-0.2 0.1-0.5 0.1v-0.2c0.2 0 0.3 0 0.4-0.1q0.1-0.1 0.1-0.3 0-0.1-0.1-0.2 0-0.1-0.2-0.2-0.1 0-0.2 0v-0.1q0.1 0 0.2-0.1 0.1 0 0.2-0.1 0-0.1 0-0.2 0-0.2-0.1-0.4-0.1 0-0.3-0.1v-0.1c0.1 0 0.2 0 0.3 0.1q0.2 0 0.3 0.1 0.1 0.2 0.1 0.4 0 0.1 0 0.2-0.1 0.2-0.3 0.2zm3.1 3.2v0.7h-0.1q0-0.2-0.1-0.3-0.1-0.1-0.2-0.2-0.1 0-0.3-0.1c0 0-0.1 0.1-0.2 0.1q-0.1 0.1-0.1 0.3 0 0 0.1 0.1 0.1 0.1 0.4 0.3 0.3 0.1 0.4 0.2 0.1 0.1 0.2 0.2 0 0.1 0 0.2 0 0.2-0.2 0.4-0.1 0.2-0.4 0.1h-0.2q0 0-0.2 0-0.1-0.1-0.2-0.1 0 0 0 0.1 0 0-0.1 0v-0.6q0.1 0.2 0.1 0.3 0.1 0.1 0.3 0.2c0 0 0.1 0 0.2 0q0.2 0 0.3 0 0.2-0.2 0.2-0.3 0 0-0.1-0.1 0-0.1-0.1-0.2-0.1 0-0.4-0.1-0.2-0.2-0.3-0.3-0.1 0-0.2-0.1 0-0.1 0-0.3 0-0.1 0.1-0.3 0.2-0.2 0.4-0.2 0.2 0.1 0.4 0.1 0.1 0.1 0.1 0 0.1 0.1 0.1 0 0 0 0-0.1 0 0 0.1 0zm-3.7 0.3v-0.1h-0.3l0.3-0.8v-0.3l-0.6 1.4q0 0.3-0.1 0.3 0 0.1-0.1 0.1h0.5q-0.1 0-0.2-0.1 0 0 0-0.1 0 0 0.1-0.1l0.1-0.3zm0.4 0h-0.4v-0.1h0.3l-0.3-0.8v-0.3l0.1-0.2 0.6 1.7q0.1 0.2 0.1 0.2 0.1 0.1 0.2 0.1h-0.7c0.1 0 0.1 0 0.2-0.1q0 0 0-0.1 0 0-0.1-0.1zm19.2 3.3v-8.4c-0.6-0.5-1.3-1-1.9-1.1-0.6-0.1-1.3 0-1.9 0.5q-0.7 0.5-1.4 0.5-0.7 0.1-1.4-0.2v8.1q0.2 0.1 0.5 0.3h0.1v0.1h0.1 0.1q0.2 0.1 0.3 0.1 0.2 0 0.5-0.1 0.5 0 1.1-0.5 0.3-0.1 0.5-0.2l0.1-0.1q0.2-0.1 0.4-0.1h0.1v-0.1h0.1q0.5-0.1 0.9 0 1.1 0.3 1.8 1.2zm0 1.3v-1c-0.5-0.6-1.1-1.1-1.8-1.2q-0.9-0.3-1.9 0.4h-0.1-0.1v0.1q-0.6 0.3-1 0.4h-0.1q-0.2 0.1-0.4 0.1h-0.1-0.1q-0.2-0.1-0.4-0.1v-0.1h-0.1-0.1v-0.1q-0.2-0.1-0.4-0.2h-0.1v-0.1-0.1-8l-0.6 0.4q0.1 2 0.1 4v1.4 2.6q0.8 0.8 1.6 0.8h0.1q0.8 0.1 1.5-0.5 0.7-0.5 1.2-0.6h0.1v-0.1h0.1 0.1 0.1q0.5-0.1 0.9 0.1 0.3 0.1 0.6 0.4h0.1v0.1q0.4 0.4 0.7 1l0.1 0.1c0 0.1 0 0.1 0 0.2zm0.1-1v0.9q0.4-0.5 0.7-1h0.1v-0.1h0.1l0.1-0.1q0 0 0.1-0.1 0.2-0.2 0.5-0.3h0.1c0.6-0.3 1.3-0.2 2.2 0.4q0.8 0.7 1.6 0.7 0.1 0 0.2 0 0.7-0.1 1.5-0.9v-7.7-0.2-0.1l-0.5-0.3v0.2 0.1 0.1 0.1 0.1 0.1 0.1 0.1 0.1 0.1 0.3 0.1 0.1 0.1 0.1 0.1 0.1 0.1 0.1 0.1 0.1 0.1 0.1 0.3 0.1 0.7 0.1 0.1 0.1 0.1 0.1q0 1.6 0 3.3v0.1 0.1 0.1 0.1 0.1 0.1 0.1q-0.1 0.1-0.3 0.2h-0.1q-0.5 0.3-1 0.2-0.3 0-0.5-0.1-0.5-0.2-1-0.5-0.5-0.4-0.9-0.5h-0.1-0.1v-0.1h-0.1-0.1-0.1-0.1-0.1-0.1l-0.1 0.1h-0.1-0.1l-0.1 0.1h-0.1-0.1l-0.1 0.1h-0.1q-0.6 0.5-1.3 1.1zm0-8.7v8.5q0.1-0.2 0.3-0.3v-0.1h0.1q0.3-0.3 0.6-0.5h0.1v-0.1h0.1q0.3-0.2 0.6-0.3 0.1 0 0.2-0.1 0.4-0.1 0.9 0.1h0.1 0.1 0.1v0.1h0.1 0.1v0.1q0.2 0.1 0.4 0.2c0.5 0.3 1 0.6 1.5 0.7q0.4 0 0.8-0.2h0.1q0.2-0.1 0.4-0.3v-0.1-0.1-0.1-0.1-0.1-0.1-0.1-0.1-0.1-0.1-0.1-0.1-0.1-0.2-0.1-0.2-0.2q0-0.9 0-1.8v-0.1-0.1-0.1q0.1-2.1 0.1-4.1c-0.4 0.1-0.8 0.3-1.2 0.3q-0.6 0.1-1.2-0.3c-0.8-0.7-1.6-0.9-2.3-0.8q-1 0.2-2 1.2zm-0.8 9.7h0.6c-0.4-0.7-0.9-1.3-1.4-1.5-0.5-0.2-1.1-0.1-1.8 0.2q-0.3 0.2-0.6 0.4-0.2 0.1-0.4 0.3-0.7 0.3-1.3 0.3-0.8-0.1-1.5-0.8l-0.1-0.1v-0.1q0-2-0.1-4v-3.8h-0.2v8q0.6 0.9 1.5 1.1 0.8 0.3 1.7-0.2 0.4-0.2 0.7-0.4c0.4-0.3 0.7-0.6 1.3-0.6q0.5 0 0.8 0.2 0.4 0.3 0.7 0.6l0.2 0.3h-0.2q-0.4 0-0.4 0.3-0.1 0.1-0.1 0.2 0 0 0.1 0.1c0 0.2 0.2 0.3 0.4 0.3h0.9v0.2-0.2h1q0.2 0 0.3-0.2 0.1-0.1 0.1-0.2 0-0.1-0.1-0.2-0.1-0.2-0.3-0.3h-0.1l0.1-0.2q0.1-0.5 0.5-0.7 0.4-0.2 1.1-0.2c0.6 0.1 0.9 0.3 1.3 0.6 0.3 0.3 0.6 0.5 1.1 0.6q0.6 0.1 1.3-0.1 0.7-0.3 1.4-0.9v-8.1h-0.3v7.8 0.1h-0.1q-0.2 0.2-0.5 0.4-0.6 0.4-1.1 0.5-0.1 0-0.1 0-0.9 0-1.7-0.7-0.9-0.6-1.6-0.6h-0.1q-0.3 0.1-0.5 0.2-0.3 0.1-0.6 0.3v0.1h-0.1l-0.1 0.1v0.1q-0.4 0.3-0.6 0.7h-0.1v0.1h0.6v0.6l-1.5-0.1v-0.5zm-4.2-6.8v-0.1h-0.3l0.3-0.7v-0.3l-0.6 1.4q-0.1 0.2-0.2 0.3 0 0-0.1 0.1h0.6q-0.2-0.1-0.2-0.1-0.1 0-0.1-0.1 0 0 0.1-0.1l0.1-0.4zm0.3 0h-0.3v-0.1h0.3l-0.3-0.7v-0.3l0.1-0.2 0.6 1.6q0.1 0.2 0.2 0.3 0 0 0.1 0.1h-0.7q0.1 0 0.2-0.1 0 0 0-0.1 0 0 0-0.2zm2.6 2.7v-0.3q-0.1 0-0.2 0h-0.1v-0.8q0.1 0 0.2 0h0.1v-0.1h-0.2-0.7v0.1h0.1q0.1 0 0.1 0 0.1 0.1 0.1 0.3v1.2q0 0.2 0 0.2-0.1 0.1-0.2 0.1h-0.1 0.9-0.1q-0.1 0-0.2-0.1c0 0 0-0.1 0-0.2v-0.6h0.1 0.1zm1.1 0.8h-0.5l-0.6-0.8v-0.3q0.1 0 0.2 0 0.1-0.2 0.1-0.3 0-0.2-0.1-0.3-0.1-0.1-0.2-0.1v-0.1q0.2 0 0.3 0 0.2 0.1 0.3 0.2 0.1 0.1 0.1 0.3 0 0.1-0.1 0.3-0.2 0.1-0.4 0.1l0.4 0.6q0.1 0.2 0.2 0.2c0.1 0.1 0.2 0.1 0.3 0.1zm-4.6-1.3h0.1 1.3 0.1l0.2 0.5-0.1 0.1q-0.1-0.2-0.2-0.3-0.2-0.1-0.4-0.1-0.1 0-0.1 0v0.1 1.4q0 0.1 0 0.1 0 0.1 0.1 0.1h0.2v0.1h-0.8v-0.1h0.1q0.1 0 0.1 0 0-0.1 0-0.2v-1.4-0.1q0 0-0.1 0-0.1 0-0.2 0-0.1 0.1-0.2 0.2-0.1 0.1-0.2 0.2h-0.1zm8.1-2.2v-0.1h-0.1q-0.2 0-0.4-0.1v-0.8h0.1 0.2 0.2v-0.1h-0.2-0.1q-0.1 0-0.2 0v-0.8q0.2 0 0.3 0 0.1 0 0.2 0v-0.1h-0.2-0.9 0.1q0.1 0 0.2 0.1 0 0.1 0 0.2v1.3q0 0.2 0 0.3 0 0-0.2 0h-0.1v0.1h1zm0.3-1q0.2 0 0.4 0.1 0.1 0.1 0.1 0.3 0 0.2-0.1 0.3-0.1 0.1-0.3 0.2-0.1 0.1-0.4 0.1v-0.1q0.2 0 0.3-0.1 0.1-0.2 0.1-0.3 0-0.2 0-0.3-0.1-0.1-0.2-0.1-0.1-0.1-0.2-0.1v-0.1q0.1 0 0.2 0 0.1-0.1 0.1-0.2 0.1-0.1 0.1-0.2 0-0.2-0.2-0.3-0.1-0.1-0.2-0.1v-0.1q0.1 0 0.2 0 0.3 0.1 0.4 0.2 0.1 0.1 0.1 0.3 0 0.2-0.1 0.3-0.1 0.1-0.3 0.2zm-1.2 2.5h0.8v0.1q-0.1 0-0.2 0 0 0.1 0 0.1 0 0.1 0 0.2v1.3q0 0 0 0.1 0.1 0.1 0.2 0.1v0.1h-0.8v-0.1h0.1q0.1 0 0.1-0.1 0 0 0.1 0v-0.1-1.4-0.1q-0.1-0.1-0.1-0.1 0 0-0.1 0h-0.1zm3-2.6h0.8v0.1q-0.2 0-0.2 0 0 0 0 0.1-0.1 0-0.1 0.1v1.3q0 0.1 0.1 0.1 0 0.1 0 0.1 0 0 0.2 0v0.1h-0.8v-0.1h0.1q0.1 0 0.1 0 0 0 0.1 0v-0.2-1.3-0.2q-0.1 0-0.1 0 0 0-0.1 0h-0.1zm-0.1 3.3h0.8v0.1q-0.1 0-0.2 0.1 0 0.1 0 0.2v1.3 0.1q0 0.1 0 0.1 0.1 0 0.2 0v0.1h-0.8v-0.1h0.1q0.1 0 0.1 0 0.1-0.1 0.1-0.1 0 0 0-0.1v-1.4q0 0 0-0.1 0 0-0.1 0 0-0.1-0.1-0.1h-0.1zm-6.7-3.2v-0.3q-0.1 0.1-0.3 0.1v-0.8q0.1 0 0.2 0h0.1v-0.2h-0.2-0.7v0.1h0.1q0.1 0 0.1 0.1 0.1 0 0.1 0.2v1.2q0 0.2-0.1 0.2 0 0.1-0.1 0.1h-0.1 0.9-0.1q-0.1 0-0.2-0.1 0 0 0-0.2v-0.6h0.1 0.1zm1.1 0.8h-0.6l-0.5-0.8v-0.2q0.1-0.1 0.1-0.1 0.2-0.1 0.2-0.3 0-0.2-0.1-0.3-0.1-0.1-0.2-0.1v-0.1q0.1 0 0.3 0 0.1 0.1 0.2 0.2 0.1 0.1 0.1 0.3 0 0.1-0.1 0.3-0.1 0.1-0.4 0.1l0.5 0.6q0.1 0.2 0.2 0.2 0.1 0.1 0.3 0.1zm-1.2-10.2q-0.7 0-1.7 0.6l-0.1 0.1q-0.4 0.3-0.9 0.4v0.1h-0.1-0.1-0.1-0.1-0.1-0.1-0.1-0.1-0.1q-0.6 0-1.3-0.5v-0.1h-0.1v-0.1h-0.1v-0.1h-0.1v-0.2l-0.1-5.3-0.1-2.4h-0.2v8q0.7 0.9 1.6 1.1c0.5 0.2 1.1 0.1 1.7-0.2q0.3-0.2 0.6-0.4c0.4-0.3 0.8-0.6 1.4-0.6 0.3 0 0.5 0.1 0.8 0.2q0.4 0.2 0.7 0.6l0.2 0.3h-0.2c-0.3 0-0.4 0.1-0.5 0.3q0 0.1 0 0.1 0 0.1 0 0.2c0.1 0.2 0.2 0.3 0.4 0.3h1v0.2-0.2h0.9q0.3-0.1 0.4-0.2 0-0.1 0-0.2 0-0.1 0-0.3-0.1-0.2-0.4-0.2h-0.1l0.1-0.3q0.2-0.4 0.6-0.6 0.4-0.3 1.1-0.2c0.6 0 0.9 0.3 1.2 0.6 0.3 0.2 0.6 0.5 1.1 0.6q0.6 0.1 1.3-0.2 0.7-0.2 1.5-0.8v-8.1h-0.4v7.7 0.1 0.1q-0.7 0.6-1.4 0.8 0 0-0.1 0h-0.1-0.1-0.1-0.1-0.1-0.1-0.1-0.1q-0.1 0-0.1 0-0.4-0.1-0.7-0.3h-0.1v-0.1q-0.2-0.1-0.3-0.2-0.1-0.1-0.2-0.2h-0.1q-0.8-0.4-1.4-0.4h-0.1-0.1v0.1h-0.1q-0.1 0-0.1 0h-0.1v0.1h-0.1q-0.3 0.1-0.5 0.3h-0.1v0.1h-0.1v0.1h-0.1v0.1h-0.1v0.1h-0.1l-0.1 0.1v0.1h-0.1v0.1h-0.1q-0.1 0.2-0.2 0.4h0.6v0.5h-1.5v-0.5h0.5q-0.1-0.3-0.3-0.6v-0.1q-0.4-0.5-0.9-0.7l-0.1-0.1q0 0-0.1 0-0.1 0-0.2-0.1h-0.1-0.1-0.1m2.4 0.3v-8.4c-0.7-0.6-1.3-1-2-1.1-0.6-0.2-1.2 0-1.8 0.5q-0.8 0.5-1.5 0.5-0.7 0.1-1.4-0.3v0.1 8.1q0.3 0.2 0.7 0.3h0.1v0.1h0.1 0.1 0.1 0.1c0.4 0 0.9-0.1 1.5-0.5q0.8-0.5 1.5-0.6h0.1q0.3 0 0.6 0.1 0.1 0 0.1 0h0.1q0.8 0.3 1.6 1.2zm0 1.3v-1q-0.9-1.1-1.8-1.2l-0.1-0.1h-0.1-0.1q0 0-0.1 0h-0.1q-0.2 0-0.3 0-0.1 0-0.1 0h-0.1q0 0-0.1 0v0.1h-0.1-0.1-0.1v0.1h-0.1q-0.3 0.1-0.6 0.3-0.1 0.1-0.1 0.1-0.1 0-0.1 0l-0.1 0.1h-0.1-0.1v0.1q-0.1 0-0.1 0-0.1 0.1-0.2 0.1-0.1 0-0.2 0v0.1h-0.1-0.1-0.1-0.1-0.1-0.1q-0.5 0-0.9-0.3h-0.1v-0.1h-0.1-0.1v-0.1-0.1-8l-0.6 0.4 0.1 8q0.6 0.5 1.1 0.7 0 0 0.1 0v0.1h0.1 0.1 0.1 0.1 0.1 0.1 0.1 0.1q0.6 0 1.3-0.5l0.1-0.1h0.1v-0.1h0.1q0.1-0.1 0.2-0.1h0.1c0.7-0.5 1.3-0.5 1.9-0.3q0.4 0.1 0.7 0.5h0.1v0.1h0.1v0.1q0.3 0.4 0.6 0.9v0.1zm0.1-1v0.9l0.1-0.1q0.6-1.1 1.5-1.5h0.1q0.2-0.1 0.4-0.1h0.1 0.1q0.7 0 1.6 0.5 0.1 0.2 0.3 0.3h0.1q0.5 0.4 1.2 0.4h0.1q0.8-0.1 1.6-0.8v-7.8-0.1-0.2l-0.5-0.3q0 1.9 0 3.8 0 1.2 0 2.3v0.1q0 1 0 1.9v0.1c-0.5 0.4-0.9 0.5-1.4 0.5h-0.1-0.1-0.1c-0.4-0.1-0.8-0.4-1.2-0.6q-0.3-0.2-0.6-0.4h-0.1c-0.5-0.2-0.9-0.2-1.3-0.1-0.6 0.2-1.1 0.6-1.8 1.2zm0-8.7v8.5q0.2-0.2 0.4-0.4c0.4-0.4 0.9-0.7 1.3-0.9h0.1q0.3-0.1 0.5-0.1h0.1q0.5 0 1.2 0.4 0.1 0.1 0.2 0.1 0.2 0.2 0.4 0.3h0.1l0.1 0.1q0.4 0.2 0.9 0.3 0.3 0 0.6-0.1 0.4-0.1 0.8-0.4 0-0.8 0-1.6 0-1.2 0-2.4 0-2 0-4.1v-0.1c-0.4 0.2-0.8 0.3-1.2 0.4-0.4 0-0.7-0.1-1.1-0.4q-1.3-0.9-2.4-0.8-1.1 0.2-2 1.2zm-4.4 4.2h0.6l1.1 1.4v-1.1q0-0.1 0-0.2-0.1-0.1-0.2-0.1h0.6q-0.2 0-0.2 0.1 0 0.1 0 0.2v1.7h-0.1l-1.3-1.6v1.2q0 0.2 0.1 0.2 0 0.1 0.1 0.1h0.1-0.7 0.1c0.1 0 0.2-0.1 0.2-0.1q0 0 0-0.2v-1.4q-0.1-0.1-0.1-0.1c-0.1 0-0.1 0-0.2 0q0-0.1-0.1-0.1zm-0.3-2.8v0.7c-0.1-0.2-0.2-0.4-0.3-0.5q-0.1-0.1-0.3-0.1-0.2 0-0.3 0.1-0.2 0.1-0.3 0.3 0 0.2 0 0.5-0.1 0.3 0 0.5 0.1 0.2 0.3 0.3 0.1 0.1 0.3 0.1 0.2 0 0.3-0.1 0.2-0.1 0.3-0.3h0.1q-0.2 0.3-0.4 0.4-0.1 0.1-0.4 0.1-0.4 0-0.7-0.3-0.1-0.3-0.2-0.7 0-0.3 0.2-0.5 0.1-0.2 0.3-0.4 0.2-0.1 0.5-0.1 0.2 0 0.3 0.1 0.1 0 0.1 0 0 0 0.1 0 0-0.1 0-0.1zm8.5-1.1v0.7q-0.1-0.3-0.3-0.4-0.1-0.2-0.3-0.2-0.3 0-0.4 0.1-0.1 0.1-0.2 0.3-0.1 0.2-0.1 0.6 0 0.2 0.1 0.4c0 0.1 0.1 0.3 0.2 0.3q0.2 0.1 0.4 0.1 0.2 0 0.3-0.1 0.1 0 0.3-0.3l0.1 0.1q-0.2 0.2-0.4 0.3-0.2 0.2-0.4 0.2-0.5 0-0.7-0.4-0.2-0.3-0.2-0.6 0-0.3 0.1-0.6 0.1-0.2 0.3-0.3 0.3-0.2 0.5-0.2 0.2 0 0.4 0.1 0.1 0.1 0.1 0.1 0 0 0.1 0 0-0.1 0-0.2zm-2.2 1.1v0.7q-0.1-0.2-0.1-0.3-0.1-0.1-0.2-0.2c-0.1-0.1-0.2-0.1-0.3-0.1q-0.1 0-0.2 0.1-0.1 0.1-0.1 0.2 0 0.1 0 0.2c0.1 0.1 0.2 0.1 0.5 0.3q0.2 0.1 0.4 0.2 0 0.1 0.1 0.2 0.1 0.1 0.1 0.2 0 0.2-0.2 0.4-0.2 0.1-0.5 0.1-0.1 0-0.1 0-0.1 0-0.2 0-0.2-0.1-0.2-0.1 0 0-0.1 0 0 0.1 0 0.1h-0.1v-0.6h0.1c0 0.1 0 0.2 0.1 0.3q0.1 0.1 0.2 0.1 0.1 0.1 0.3 0.1 0.2 0 0.3-0.1 0.1-0.1 0.1-0.2v-0.1q-0.1-0.1-0.2-0.2 0 0-0.3-0.2-0.3-0.1-0.3-0.2-0.2-0.1-0.2-0.2-0.1 0-0.1-0.2 0-0.2 0.2-0.3 0.2-0.2 0.4-0.2 0.2 0 0.4 0.1h0.1q0.1 0 0.1-0.1zm-8 3.5h1.6l0.2 0.6h-0.2q0-0.1-0.1-0.2 0-0.1-0.1-0.1-0.1-0.1-0.1-0.1-0.1 0-0.3 0h-0.5v0.7h0.4q0.1 0 0.2 0 0 0 0-0.1 0.1-0.1 0.1-0.2h0.1v0.8h-0.1q0-0.1-0.1-0.2 0 0 0-0.1 0 0-0.1 0h-0.1-0.4v0.6 0.1q0 0.1 0.1 0.1h0.1 0.3q0.2 0 0.3-0.1 0.2 0 0.3-0.2 0-0.1 0.1-0.2h0.2l-0.3 0.6h-1.6v-0.1h0.1q0.1 0 0.1 0 0 0 0-0.1v-0.1-1.3q0-0.1 0-0.2-0.1 0-0.2 0zm10.4 0.5h1.6l0.2 0.5h-0.2q0-0.1-0.1-0.2 0 0-0.1-0.1 0 0-0.1 0-0.1-0.1-0.3-0.1h-0.5v0.8h0.4q0.1 0 0.2-0.1 0 0 0.1-0.1 0 0 0-0.2h0.1v0.9h-0.1v-0.1q0-0.1 0-0.2 0 0-0.1 0c0-0.1 0-0.1-0.1-0.1q0 0-0.1 0h-0.4v0.6 0.2q0 0 0.1 0 0 0 0.1 0h0.3q0.2 0 0.3 0 0.2-0.1 0.3-0.2 0.1-0.1 0.1-0.3h0.1l-0.2 0.7h-1.6v-0.2h0.1 0.1q0 0 0.1 0 0-0.1 0-0.2v-1.3q0-0.1 0-0.1 0-0.1-0.1-0.1 0 0-0.2 0zm-1.2 0v-0.1h-0.3l0.3-0.7v-0.4l-0.5 1.5q-0.1 0.2-0.2 0.3 0 0-0.1 0v0.1h0.5v-0.1q-0.1 0-0.1 0-0.1 0-0.1-0.1 0 0 0.1-0.2l0.1-0.3zm0.3 0h-0.3v-0.1h0.3l-0.3-0.8v0.1-0.4-0.1h0.1l0.6 1.6q0.1 0.2 0.1 0.3 0.1 0 0.2 0v0.1h-0.7v-0.1q0.1 0 0.2 0 0 0 0-0.1 0 0-0.1-0.2zm-6.7-3.4v-0.1q-0.3 0-0.4-0.2-0.2-0.2-0.2-0.7 0-0.4 0.2-0.7 0.1-0.2 0.4-0.2v-0.1q-0.4 0-0.6 0.3-0.4 0.3-0.4 0.7 0 0.5 0.3 0.8 0.3 0.3 0.7 0.2zm0-2q0.4 0 0.7 0.3 0.2 0.3 0.2 0.7 0 0.5-0.2 0.8-0.3 0.3-0.7 0.3v-0.1q0.3 0 0.4-0.3 0.2-0.2 0.2-0.6 0-0.5-0.2-0.8c-0.1-0.1-0.2-0.2-0.4-0.2zm1 1.6h0.5l1.2 1.5v-1.1q0-0.2 0-0.3-0.1 0-0.2 0h-0.1v-0.1h0.7v0.1q-0.2 0-0.2 0-0.1 0.1-0.1 0.3v1.6l-1.3-1.6v1.2q0 0.2 0 0.2 0.1 0.1 0.2 0.1h0.1v0.1h-0.7v-0.1h0.1c0 0 0.1 0 0.1-0.1q0 0 0.1-0.2v-1.3q-0.1-0.1-0.2-0.2c0 0 0 0-0.1 0q0 0-0.1 0zm0.5 3.3h0.1v0.1h1.3v-0.1h0.1l0.2 0.6h-0.1c-0.1-0.2-0.2-0.2-0.3-0.3q-0.1-0.1-0.3-0.1-0.1 0-0.1 0v0.1 1.4 0.1q0 0 0 0.1 0 0 0.1 0 0 0 0.1 0v0.1h-0.8v-0.1q0.2 0 0.2 0 0 0 0.1-0.1 0 0 0-0.1v-1.4-0.1q0 0-0.1 0-0.2 0-0.3 0-0.1 0.1-0.2 0.2-0.1 0-0.1 0.2h-0.2zm2.7-0.1h0.8v0.1h-0.1q-0.1 0.1-0.1 0.1 0 0-0.1 0 0 0.1 0 0.2v1.3q0 0.1 0 0.1 0.1 0.1 0.1 0.1h0.1 0.1v0.1h-0.8v-0.1q0.1 0 0.2 0 0 0 0-0.1 0 0 0-0.1v-1.3q0-0.1 0-0.2-0.1 0-0.2 0zm4.2-3.4h0.8v0.1h-0.1q-0.1 0-0.1 0 0 0.1-0.1 0.1 0 0.1 0 0.2v1.3q0 0.1 0 0.1 0.1 0.1 0.1 0.1 0 0 0.1 0h0.1v0.1h-0.8v-0.1h0.1q0.1 0 0.1 0 0 0 0-0.1 0.1 0 0.1-0.1v-1.3q0-0.2-0.1-0.2 0-0.1-0.1-0.1h-0.1zm-26.5 65.6c0.4-1.5-0.1-2.4-1-2.7q-0.2-0.1-0.4-0.1-0.5 0-0.9 0.1c-0.7 0.4-1.2 1.2-0.7 2.6 0.2 0.4 0.4 0.8 0.7 1.2 0.4 0.4 0.9 0.8 1.4 1.1q0.4 0.2 0.8 0.4 0.5 0.1 0.8 0.2 0.2 0 0.3 0 0.8 0.1 1.3-0.2c1.3-0.7 1.2-2.6 0-3.1v-0.1h-0.1q-0.1 0-0.2 0c-0.5-0.1-1.2 0.1-2 0.6v-0.1 0.1-0.1z"/>
		</g>
		<g>
			<path fill-rule="evenodd" class="s0" d="m207.6 141.5h7.6c-8.3 7.5-2.7 17.4 1.4 25.7 0.7 1.5 1.3 2.9 1.9 4.2 5 12.8 8.4 25.1-1.8 33.5l-0.1 0.1c-7.2 5.2-13.3 4.6-15.4 2.6q-0.4-0.5-0.6-1 0.1-1.9 0.6-3.3c1-2.7 3.1-3.9 6.4-3.7 4 0 6.9-0.6 9-1.8 2.5-1.3 3.9-3.4 4.2-6.1 0-2.5-2.1-8.1-4.2-12.5-1.3-2.7-2.7-5-3.5-5.8-3.2-1.8-5.2-1.6-7.3-1.2-1.8-4.5-3.5-8.8-4.6-12.8-1.5-5.6-1.9-10.4 0-13.7 1.2-2 3.3-3.5 6.4-4.2zm9.1 13.4c0.5-1.7 1.7-3.5 3.1-5.3 2.5-3 4-8.3-1.4-9.2h-1.8c-2.7-0.1-5.2-0.2-8.1-0.3-5.5-6.5-6.4-11.2-7-15.8 0-2.1-0.1-3.9-0.3-5.7-0.1-1.6-0.4-3.2-0.7-4.9q0.4 0.4 0.7 0.8c2.1 2.4 3.1 5.3 3.4 8.4l1.4 0.1c0.8-4.6 3-7.9 6.1-10.2-2.8 6.2-1.7 11.1 1.1 15.5q1.9 2.3 3.4 4.2c5.3 7.1 6.7 11.1 7.2 14.5 0.6 4.4-1.5 8.9-5.4 11.1-0.6 0.3-1.2 0.4-1.5 0.2q-0.2-0.1-0.3-0.2c-0.5-0.7-0.2-2.1 0-2.9zm-1.7 3.7h-0.6c-1.9-3-2.8-7.3-1.3-11.4 1-2.3 2.3-3.8 3.5-4.6 3.3-2.3 6 0.2 2.9 4.8-1 1.4-2 2.7-2.9 4.1-1.5 2.4-2.5 4.8-1.6 7.1zm-3.7 29.8c2.2-1.2 4-1.4 5.3-1 3.6 0.9 4.1 5.9 0 8.7-1.2 0.8-2.9 1.5-5 1.8-3 0.4-7.7-0.4-10.4 2.3-0.8 0.9-1.5 2.2-1.8 4-0.8-2.9-0.1-5.6 1.8-8.1 2.1-2.7 5.5-5.3 10.1-7.7zm-121.4-11.3q2.2-5.5 8.4-3.4 1.6 0.8 3.6 2c2.3 1.4 4.9 3.3 7.3 5.6q4.5 4.3 9 7.7 7.2 5.4 14.3 8.5c6.3 2.8 12.4 4.2 18.5 4.3q8.2 0.2 16.2-2.7 1.4-0.4 2.7-1c5-2.1 9.8-5.1 14.8-8.8 3.9-2.9 7.9-6.2 12.1-9.8q0.9-0.8 2-1.6 1.2-1 2.4-1.8c4.3-2.8 9.2-4.1 12.6 1.5l2.8 7.2 0.4 1.1q-0.2 0-0.4 0c-6.1 0-11 3.1-15.4 7.7l-0.5 0.6q-0.9 1.2-1.9 2.3c-4.4 5.1-9 9.4-14.1 12.8-4.6 3-9.4 5.4-14.7 7-5.8 1.8-12.1 2.7-18.9 2.8q-3.2 0-6.6-0.3c-4-0.3-8.1-1.1-12-2.5-5-1.7-9.9-4.3-14.3-7.4-4.1-2.9-7.8-6.3-11-10-1.7-2.2-3.5-4.1-5.3-5.8-4.8-4.6-9.7-7.4-14-7.2q-0.8 0-1.5 0.2l1.5-3.7zm60.9 28c-1.2 2.4-2.3 5.7-4.3 8.5-0.1 0.1-0.5 0.2-0.5 0.3l-0.1 0.5h3.3v-0.4c-1.6-0.1-0.8-1.1-0.2-1.8h3.6c0.7 0.7 1.4 1.8-0.1 1.8v0.4h3.7v-0.4c-0.7-0.4-0.9-0.6-1.2-1.4l-3.5-7.5zm46.2-15.8l-0.5 0.1 1.1 3.1 0.3-0.2c0-0.2 0.4-0.4 0.9-0.5 0.5 0 0.9-0.1 1.3-0.1q0.6-0.1 1.2-0.4 0.4-0.3 0.7-0.7c0.6-0.7 0.8-1.7 0.4-2.6-0.2-0.6-0.6-0.9-1.1-1.2q-0.7-0.3-1.8-0.4l-1.4-0.2c-2.8-0.7-1.5-3.5 0.7-2.7h0.2c0.4 0.2 0.4 0.4 1 1.3l0.5-0.2-1-2.9-0.5 0.2q0 0.1-0.1 0.2c-0.7 0.5-3 0.5-3.6 1.8-0.5 1.1 0.2 2.7 1.2 3.3 0.6 0.4 1.5 0.4 2.4 0.5q0.4 0 0.8 0.1c2.9 0.5 1.2 3.2-0.8 2.8-0.7-0.1-1.3-0.5-1.9-1.3zm-12.4 10.3l-1.9-2.5c-0.6-0.9-1.3-1.6-0.2-2.5l-0.2-0.2-3.2 2.3 0.2 0.3c1.4-0.6 1.7 0.5 2.4 1.5l1.3 1.7c0.2 0.3 0.4 0.6 0.7 0.8q0.5 0.5 1.1 0.8c1.4 0.8 3 0.4 4.4-0.8 1.7-1.4 1.5-3.5 0.3-5.2-0.6-0.8-2.8-3.3-2.5-4.1 0-0.1 0.2-0.2 0.3-0.4l-0.1-0.3-2.4 1.7-0.3 0.2 0.1 0.2h0.2c1.1-0.4 1.4 0.4 2 1.2l1.7 2.3c2.1 3.1-1.7 5.5-3.7 3.2q-0.1-0.1-0.2-0.2zm-32 11.5h-3.2l1.6-3.9 0.1 0.3zm-36.1-11.3c-0.6 0.8-0.8 1.7-2 1.6l-0.2 0.3 3.3 2.2 0.2-0.5c-0.6-0.7 0-1.7 0.5-2.6l0.2-0.3 1.5-2.5c0.6-1 0.8-1.6 2.2-1.4l0.2-0.4-3.3-2.1-0.3 0.3c0.7 1 0.3 1.1-0.2 2.1l-0.3 0.3zm-15.1-12.6c-0.6 0.6-0.7 0.6-1.5 0.1l-0.4 0.4 2.5 2.5 2.6 2.5 2.3-1.2-0.3-0.4c-1.3 0.5-1.8 0.2-2.8-0.7-1-1-1.6-1.6-0.4-2.8 1-1 1.9-2.1 3-3.1 0.6-0.5 1.1-0.6 2.2-0.2l0.2-0.1-3-3-0.2 0.2c0.6 1.3 0.1 1.3-0.6 2.2zm34.9 19.5l0.5 0.2 1.2-2.8-0.5-0.2c-0.7 0.5-1.6-0.7-2.1-1.1-0.8-0.6-1.8-0.9-2.7-0.9-1.9 0-3.8 1-4.8 3-1.1 2.2-0.1 5.1 1.9 6.3 0.8 0.5 1.9 0.8 2.9 0.9 0.6 0 1.2 0 1.7 0 0.6-1 1.3-3.7 2.6-3.3l0.2-0.2-3.3-1.6-0.2 0.3c0.7 0.3 0.8 0.7 0.7 1.2-0.2 0.8-0.7 1.5-1.2 2.3q-0.2 0-0.5 0c-2.9-0.1-4.1-2.6-3-5.3 0.6-1.3 1.8-2.1 3-2.2 1.7-0.1 3.5 0.9 3.6 3.4zm-53.8-51.8c-2.1-2.5-2.4-5.8-2-9 0.4-3.5 2.3-7.8 7.5-13.7q0.3-0.4 0.7-0.7c5.2-5.7 6.5-11.9 3.5-18.4 3.2 2.2 5.4 5.3 6 10h1.5c0.3-3.4 1.2-5.7 2.4-7.3 0.5-0.6 1.1-1.2 1.6-1.7-0.6 2.9-0.3 8.2-1.6 13.9-1 4.1-2.8 8.4-6.4 12h-9.5c-6.3 0.1-3.8 6.6-0.6 9.4q0.2 0.1 0.3 0.3 1.3 1.1 2.1 2.1c1.5 1.8 2 3.2 1.9 4.8-0.2 1.1-0.9 1.6-1.9 1.6-1.6 0-3.9-1.4-5.5-3.3zm6.9-11.3q2.6 2.8 2.9 5.8c0.2 2.1-0.3 4.5-0.9 6.4 0.2-1.3-0.5-3.1-3.4-6.2q-0.9-1-2.1-2.1c-4.1-3.8-1.7-8 2.1-5.2q0.7 0.5 1.4 1.3zm8.9 28.4c-3.5-1.1-7.9 0.3-9.4 4l-0.9 2.1q-1.8 4.6-3.7 9.3c-2.3 5.8 0 8.4 3.7 9.8 2.4 0.9 5.4 1.3 8 1.7 2.3 0.3 4.4 0.6 5.9 1.6l0.2 0.1c3.1 2.2 2.6 5.4 0 7.1-0.9 0.5-2.1 0.9-3.4 1-4.1-0.2-7.5-1.7-10.7-4.1q-1.2-0.9-2.4-2.1c-5.2-5.6-5.1-13.4-3.4-20.4 1.3-5.2 3.2-10.3 5.9-15.9 2.3-4.9 5.7-9.9 5.7-15.4 0-3.2-1.1-6-4.2-9.2h7c1.6 0.6 3.8 1.3 5.5 2.9 2 1.9 3.3 5 2.1 10.6-0.6 2.2-1.3 4.5-2.1 6.7-1.2 3.4-2.6 6.8-3.8 10.2zm-6.9 15.9c3.1 1.2 6.5 3.3 10.7 7.8q1 1 2 2.2c0.4 0.5 0.4 0.9 0.5 1.4 0.1 0.7 0.2 1.3 0.4 1.9-0.6-1.2-1.6-2-2.9-2.6-1.9-0.9-4.5-1.3-7.5-1.6-1.6-0.2-4.4-0.6-6.6-1.5-1.8-0.8-3.3-2.1-3.3-4-0.1-2.5 1.4-3.8 3.3-4 1.1-0.2 2.3 0 3.4 0.4zm74 15.3l-2.5 1 0.2 0.3c0.6 0.1 0.7 0.2 0.8 0.4 0.5 1.4 2.7 5.6 2.5 7.1 0 0.1-0.2 0.2-0.3 0.3l0.1 0.4 3-1.3v-0.2c-1.6 0.2-1.7-0.8-2.2-1.9l-1-2.5 4.2 3.1 1 0.8 1-0.4 0.6-6 1.1 2.4c0.5 1.1 1.1 2-0.3 2.8l0.1 0.2 3.7-1.4-0.1-0.3c-1.3-0.3-1.4-0.8-1.9-2l-1.2-3.3c-0.5-1.1-0.8-2.1 0-2.5l-0.1-0.3-2.5 0.9-0.8 7.5-0.6-0.7z"/>
		</g>
	</g>
</svg>